<?xml version="1.0" standalone="no"?>
<!DOCTYPE svg PUBLIC "-//W3C//DTD SVG 1.1//EN" "http://www.w3.org/Graphics/SVG/1.1/DTD/svg11.dtd" >
<svg xmlns="http://www.w3.org/2000/svg">
<metadata>Generated by IcoMoon</metadata>
<defs>
<font id="features-fp" horiz-adv-x="1024">
<font-face units-per-em="1024" ascent="960" descent="-64" />
<missing-glyph horiz-adv-x="1024" />
<glyph unicode="&#x20;" horiz-adv-x="512" d="" />
<glyph unicode="&#x21;" glyph-name="expenses" d="M362.496 704c23.552 0 42.667-19.157 42.667-42.667 0-11.776 9.557-21.333 21.333-21.333s21.333 9.557 21.333 21.333c0 39.637-27.307 72.789-64 82.304v24.363c0 11.776-9.557 21.333-21.333 21.333s-21.333-9.557-21.333-21.333v-24.363c-36.693-9.515-64-42.667-64-82.304 0-47.061 38.272-85.333 85.333-85.333 23.552 0 42.667-19.157 42.667-42.667s-19.115-42.667-42.667-42.667-42.667 19.157-42.667 42.667c0 11.776-9.557 21.333-21.333 21.333s-21.333-9.557-21.333-21.333c0-39.637 27.307-72.789 64-82.304v-24.363c0-11.776 9.557-21.333 21.333-21.333s21.333 9.557 21.333 21.333v24.363c36.693 9.515 64 42.667 64 82.304 0 47.061-38.272 85.333-85.333 85.333-23.552 0-42.667 19.157-42.667 42.667s19.115 42.667 42.667 42.667zM1017.771-27.563l-384.427 384.384c57.045 64.085 91.989 148.181 91.989 240.512 0 199.979-162.688 362.667-362.667 362.667s-362.667-162.688-362.667-362.667 162.688-362.667 362.667-362.667c92.331 0 176.427 34.944 240.512 91.989l384.427-384.384c4.139-4.181 9.6-6.272 15.061-6.272s10.923 2.091 15.104 6.229c8.32 8.32 8.32 21.845 0 30.208zM42.667 597.333c0 176.427 143.531 320 320 320s320-143.573 320-320c0-176.469-143.531-320-320-320s-320 143.531-320 320z" />
<glyph unicode="&#x22;" glyph-name="income" d="M960 490.667h-384c-11.776 0-21.333-9.557-21.333-21.333v-106.667h-21.333c-11.776 0-21.333-9.557-21.333-21.333v-128c0-11.776 9.557-21.333 21.333-21.333h21.333v-85.333h-21.333c-11.776 0-21.333-9.557-21.333-21.333v-128c0-11.776 9.557-21.333 21.333-21.333h384c11.776 0 21.333 9.557 21.333 21.333v106.667h21.333c11.776 0 21.333 9.557 21.333 21.333v128c0 11.776-9.557 21.333-21.333 21.333h-21.333v85.333h21.333c11.776 0 21.333 9.557 21.333 21.333v128c0 11.776-9.557 21.333-21.333 21.333zM810.667 64v-85.333h-170.667v85.333h170.667zM682.667 106.667v85.333h170.667v-85.333h-170.667zM640 234.667v85.333h170.667v-85.333h-170.667zM682.667 362.667v85.333h170.667v-85.333h-170.667zM597.333 448h42.667v-85.333h-42.667v85.333zM554.667 320h42.667v-85.333h-42.667v85.333zM597.333 192h42.667v-85.333h-42.667v85.333zM554.667 64h42.667v-85.333h-42.667v85.333zM896-21.333h-42.667v85.333h42.667v-85.333zM938.667 106.667h-42.667v85.333h42.667v-85.333zM896 234.667h-42.667v85.333h42.667v-85.333zM938.667 362.667h-42.667v85.333h42.667v-85.333zM448 106.667h-21.333v106.667c0 11.776-9.557 21.333-21.333 21.333h-384c-11.776 0-21.333-9.557-21.333-21.333v-128c0-11.776 9.557-21.333 21.333-21.333h21.333v-106.667c0-11.776 9.557-21.333 21.333-21.333h384c11.776 0 21.333 9.557 21.333 21.333v128c0 11.776-9.557 21.333-21.333 21.333zM384 106.667h-42.667v85.333h42.667v-85.333zM128 106.667v85.333h170.667v-85.333h-170.667zM341.333 64v-85.333h-170.667v85.333h170.667zM42.667 192h42.667v-85.333h-42.667v85.333zM85.333 64h42.667v-85.333h-42.667v85.333zM426.667-21.333h-42.667v85.333h42.667v-85.333zM981.248 939.008c0 1.664-0.555 3.2-0.939 4.821-0.299 1.109-0.299 2.304-0.768 3.328-0.341 0.768-0.981 1.323-1.365 2.048-0.981 1.707-2.005 3.413-3.413 4.736-0.085 0.043-0.085 0.171-0.171 0.256-0.683 0.64-1.536 0.896-2.304 1.408-1.451 1.067-2.859 2.133-4.523 2.773-1.365 0.555-2.773 0.64-4.267 0.853-1.152 0.256-2.261 0.768-3.499 0.768h-298.667c-11.776 0-21.333-9.557-21.333-21.333s9.557-21.333 21.333-21.333h249.429l-272.853-291.029-197.931 158.336c-8.491 6.784-20.736 6.144-28.416-1.579l-384-384c-8.32-8.32-8.32-21.845 0-30.165 4.181-4.139 9.643-6.229 15.104-6.229s10.923 2.091 15.104 6.229l370.517 370.517 198.4-158.763c8.661-6.955 21.248-6.059 28.928 2.091l283.051 301.952v-223.36c0-11.776 9.557-21.333 21.333-21.333s21.333 9.557 21.333 21.333v277.333c0 0.085-0.085 0.213-0.085 0.341z" />
<glyph unicode="&#x23;" glyph-name="bitcoin-exchange" d="M469.333 320c0 47.104-38.272 85.333-85.333 85.333v63.104c0 11.776-9.557 21.333-21.333 21.333s-21.333-9.515-21.333-21.333v-63.104h-42.667v63.104c0 11.776-9.557 21.333-21.333 21.333s-21.333-9.515-21.333-21.333v-63.104h-21.333c-11.776 0-21.333-9.557-21.333-21.333v-256c0-11.776 9.557-21.333 21.333-21.333h21.333v-64c0-11.776 9.557-21.333 21.333-21.333s21.333 9.557 21.333 21.333v64h42.667v-64c0-11.776 9.557-21.333 21.333-21.333s21.333 9.557 21.333 21.333v64c47.061 0 85.333 38.272 85.333 85.333 0 25.6-11.563 48.341-29.483 64 17.92 15.659 29.483 38.4 29.483 64zM426.667 192c0-23.509-19.115-42.667-42.667-42.667h-128v85.333h128c23.552 0 42.667-19.157 42.667-42.667zM256 277.333v85.333h128c23.552 0 42.667-19.157 42.667-42.667s-19.115-42.667-42.667-42.667h-128zM789.333 490.667c129.365 0 234.667 105.259 234.667 234.667s-105.301 234.667-234.667 234.667-234.667-105.259-234.667-234.667c0-129.408 105.301-234.667 234.667-234.667zM789.333 917.333c105.856 0 192-86.144 192-192s-86.144-192-192-192-192 86.144-192 192 86.144 192 192 192zM320 576c-176.469 0-320-143.531-320-320s143.531-320 320-320 320 143.531 320 320-143.531 320-320 320zM320-21.333c-152.917 0-277.333 124.416-277.333 277.333s124.416 277.333 277.333 277.333 277.333-124.416 277.333-277.333-124.416-277.333-277.333-277.333zM789.333 647.765c-15.488 0-28.117 12.629-28.117 28.117 0 11.776-9.557 21.333-21.333 21.333s-21.333-9.557-21.333-21.333c0-31.573 20.864-58.027 49.451-67.157v-15.275c0-11.776 9.557-21.333 21.333-21.333s21.333 9.557 21.333 21.333v15.275c28.587 9.088 49.451 35.584 49.451 67.157 0 39.040-31.744 70.784-70.784 70.784-15.488 0-28.117 12.629-28.117 28.117s12.629 28.075 28.117 28.075 28.117-12.587 28.117-28.075c0-11.776 9.557-21.333 21.333-21.333s21.333 9.557 21.333 21.333c0 31.531-20.864 57.984-49.451 67.115v15.317c0 11.776-9.557 21.333-21.333 21.333s-21.333-9.557-21.333-21.333v-15.317c-28.587-9.088-49.451-35.541-49.451-67.115 0-39.040 31.744-70.784 70.784-70.784 15.488 0 28.117-12.629 28.117-28.117s-12.629-28.117-28.117-28.117zM155.563 646.272c2.005-2.005 4.395-3.541 6.955-4.651 2.603-1.067 5.376-1.621 8.149-1.621s5.547 0.555 8.149 1.621c2.603 1.109 4.949 2.645 6.955 4.651l85.291 85.291c8.32 8.32 8.32 21.845 0 30.165s-21.845 8.32-30.165 0l-47.957-47.957c4.949 100.949 88.235 181.888 191.147 182.229 11.733 0.043 21.291 9.643 21.248 21.376s-9.6 21.291-21.333 21.291c0 0-0.043 0-0.085 0-126.891-0.427-230.101-101.205-234.155-226.261l-49.323 49.365c-8.32 8.32-21.845 8.32-30.165 0s-8.32-21.845 0-30.165l85.291-85.333zM911.104 335.104c-2.005 1.963-4.395 3.541-6.955 4.608-5.248 2.133-11.093 2.133-16.341 0-2.603-1.067-4.949-2.645-6.955-4.608l-85.291-85.333c-8.32-8.32-8.32-21.845 0-30.165s21.845-8.32 30.165 0l47.957 47.957c-4.907-100.907-88.192-181.888-191.104-182.229-11.733-0.043-21.291-9.643-21.248-21.419 0.043-11.733 9.6-21.248 21.333-21.248 0.043 0 0.043 0 0.043 0 126.933 0.427 230.144 101.205 234.197 226.261l49.323-49.323c4.181-4.181 9.643-6.272 15.104-6.272s10.923 2.091 15.104 6.229c8.32 8.32 8.32 21.845 0 30.165l-85.333 85.376z" />
<glyph unicode="&#x24;" glyph-name="banknotes-1" d="M853.333 298.667v512c0 11.776-9.557 21.333-21.333 21.333h-810.667c-11.776 0-21.333-9.557-21.333-21.333v-512c0-11.776 9.557-21.333 21.333-21.333h810.667c11.776 0 21.333 9.557 21.333 21.333zM810.667 320h-768v469.333h768v-469.333zM938.667 213.333v512c0 11.776-9.557 21.333-21.333 21.333s-21.333-9.557-21.333-21.333v-490.667h-789.333c-11.776 0-21.333-9.557-21.333-21.333s9.557-21.333 21.333-21.333h810.667c11.776 0 21.333 9.557 21.333 21.333zM1002.667 661.333c-11.776 0-21.333-9.557-21.333-21.333v-490.667h-789.333c-11.776 0-21.333-9.557-21.333-21.333s9.557-21.333 21.333-21.333h810.667c11.776 0 21.333 9.557 21.333 21.333v512c0 11.776-9.557 21.333-21.333 21.333zM426.667 405.333c82.347 0 149.333 66.987 149.333 149.333s-66.987 149.333-149.333 149.333-149.333-66.987-149.333-149.333 66.987-149.333 149.333-149.333zM426.667 661.333c58.837 0 106.667-47.872 106.667-106.667s-47.829-106.667-106.667-106.667-106.667 47.872-106.667 106.667 47.829 106.667 106.667 106.667zM106.667 362.667h85.333c11.776 0 21.333 9.557 21.333 21.333s-9.557 21.333-21.333 21.333h-85.333c-11.776 0-21.333-9.557-21.333-21.333s9.557-21.333 21.333-21.333zM661.333 704h85.333c11.776 0 21.333 9.557 21.333 21.333s-9.557 21.333-21.333 21.333h-85.333c-11.776 0-21.333-9.557-21.333-21.333s9.557-21.333 21.333-21.333z" />
<glyph unicode="&#x25;" glyph-name="banknotes-2" d="M746.667 320c4.224 0 8.32 1.237 11.819 3.584l256 170.667c9.771 6.528 12.459 19.755 5.931 29.568-6.571 9.856-19.883 12.416-29.568 5.931l-250.624-167.083h-185.557v42.667h192c4.224 0 8.32 1.237 11.819 3.584l256 170.667c9.771 6.528 12.459 19.755 5.931 29.568-6.571 9.813-19.883 12.459-29.568 5.931l-250.624-167.083h-185.557v42.667h192c4.224 0 8.32 1.237 11.819 3.584l256 170.667c7.851 5.205 11.307 14.933 8.576 23.979-2.688 8.96-10.965 15.104-20.395 15.104h-206.251l5.717 4.267c7.381 5.547 10.325 15.104 7.467 23.851-2.944 8.661-11.093 14.549-20.267 14.549h-298.667c-4.608 0-9.131-1.493-12.8-4.267l-51.2-38.4h-149.333c-4.224 0-8.32-1.237-11.819-3.584l-256-170.667c-7.851-5.205-11.307-14.933-8.576-23.936 2.688-8.96 10.965-15.147 20.395-15.147h192v-42.667h-192c-11.776 0-21.333-9.557-21.333-21.333s9.557-21.333 21.333-21.333h192v-42.667h-192c-11.776 0-21.333-9.557-21.333-21.333s9.557-21.333 21.333-21.333h192v-42.667h-192c-11.776 0-21.333-9.557-21.333-21.333s9.557-21.333 21.333-21.333h192v-42.667h-192c-11.776 0-21.333-9.557-21.333-21.333s9.557-21.333 21.333-21.333h192v-21.333c0-11.776 9.557-21.333 21.333-21.333h298.667c11.776 0 21.333 9.557 21.333 21.333v21.333h192c4.224 0 8.32 1.237 11.819 3.584l256 170.667c9.771 6.528 12.459 19.755 5.931 29.568-6.571 9.856-19.883 12.416-29.568 5.931l-250.624-167.083h-185.557v42.667h192c4.224 0 8.32 1.237 11.819 3.584l256 170.667c9.771 6.528 12.459 19.755 5.931 29.568-6.571 9.813-19.883 12.416-29.568 5.931l-250.624-167.083h-185.557v42.667h192zM932.224 661.333l-192-128h-171.349l170.667 128h192.683zM91.776 533.333l192 128h86.016l-147.925-110.933c-5.376-4.011-8.533-10.368-8.533-17.067h-121.557zM512 149.333h-256v373.333l241.792 181.333h227.541l-204.8-153.6c-5.376-4.011-8.533-10.368-8.533-17.067v-384zM384 469.333c23.552 0 42.667-19.157 42.667-42.667 0-11.776 9.557-21.333 21.333-21.333s21.333 9.557 21.333 21.333c0 39.637-27.307 72.747-64 82.304v24.363c0 11.776-9.557 21.333-21.333 21.333s-21.333-9.557-21.333-21.333v-24.363c-36.693-9.557-64-42.667-64-82.304 0-47.061 38.272-85.333 85.333-85.333 23.552 0 42.667-19.157 42.667-42.667s-19.115-42.667-42.667-42.667-42.667 19.157-42.667 42.667c0 11.776-9.557 21.333-21.333 21.333s-21.333-9.557-21.333-21.333c0-39.637 27.307-72.747 64-82.304v-24.363c0-11.776 9.557-21.333 21.333-21.333s21.333 9.557 21.333 21.333v24.363c36.693 9.557 64 42.667 64 82.304 0 47.104-38.272 85.333-85.333 85.333-23.552 0-42.667 19.157-42.667 42.667s19.115 42.667 42.667 42.667z" />
<glyph unicode="&#x26;" glyph-name="savings" d="M489.259 724.565c-11.733-0.811-20.651-10.965-19.883-22.699 0.811-11.776 11.392-20.651 22.699-19.883 71.68 4.565 142.123-16.256 199.125-59.051 3.84-2.859 8.363-4.267 12.8-4.267 6.443 0 12.885 2.944 17.024 8.533 7.083 9.429 5.205 22.784-4.267 29.867-65.152 48.896-145.749 72.789-227.499 67.499zM1024 554.667c0 11.776-9.557 21.333-21.333 21.333s-21.333-9.557-21.333-21.333c0-28.331-18.645-52.139-44.117-60.501-15.061 188.373-198.827 337.835-423.211 337.835-32.171 0-64.597-3.157-96.597-9.387-31.701 45.653-84.053 73.387-140.032 73.387-29.739 0-59.307-7.936-85.376-22.997-6.571-3.797-10.667-10.88-10.667-18.475 0-7.637 4.053-14.677 10.624-18.475 29.909-17.323 51.712-46.379 60.117-79.488-84.139-55.083-141.44-135.040-160.085-223.232h-70.656c-11.776 0-21.333-9.557-21.333-21.333v-170.667c0-11.776 9.557-21.333 21.333-21.333h101.973c37.504-70.699 99.712-126.891 175.36-164.053v-134.613c0-11.776 9.557-21.333 21.333-21.333s21.333 9.557 21.333 21.333v115.883c52.736-19.541 110.464-30.549 170.667-30.549 60.672 0 118.315 10.965 170.667 30.507v-115.84c0-11.776 9.557-21.333 21.333-21.333s21.333 9.557 21.333 21.333v134.4c121.131 59.733 204.331 168.533 212.181 294.272 49.195 9.515 86.485 52.779 86.485 104.661zM512 149.333c-157.653 0-297.557 79.019-356.395 201.259-3.541 7.381-10.965 12.075-19.2 12.075h-93.739v128h67.157c10.581 0 19.541 7.765 21.077 18.176 12.971 87.168 69.845 167.040 155.947 219.221 7.381 4.395 11.307 12.757 10.112 21.248-5.504 38.784-23.765 73.685-51.627 99.883 54.997 14.336 115.328-11.392 143.36-61.013 4.608-8.149 13.909-12.459 23.296-10.325 33.664 7.637 68.011 11.477 102.016 11.477 210.603 0 381.995-143.573 381.995-320 0-176.469-172.245-320-384-320zM298.667 533.333c0-23.564-19.103-42.667-42.667-42.667s-42.667 19.103-42.667 42.667c0 23.564 19.103 42.667 42.667 42.667s42.667-19.103 42.667-42.667z" />
<glyph unicode="&#x27;" glyph-name="graph-bar-1" d="M1002.667-21.333h-21.333v618.667c0 11.776-9.557 21.333-21.333 21.333h-128c-11.776 0-21.333-9.557-21.333-21.333v-618.667h-85.333v320c0 11.776-9.557 21.333-21.333 21.333h-128c-11.776 0-21.333-9.557-21.333-21.333v-320h-85.333v405.333c0 11.776-9.557 21.333-21.333 21.333h-128c-11.776 0-21.333-9.557-21.333-21.333v-405.333h-85.333v192c0 11.776-9.557 21.333-21.333 21.333h-128c-11.776 0-21.333-9.557-21.333-21.333v-192h-21.333c-11.776 0-21.333-9.557-21.333-21.333s9.557-21.333 21.333-21.333h981.333c11.776 0 21.333 9.557 21.333 21.333s-9.557 21.333-21.333 21.333zM853.333 576h85.333v-597.333h-85.333v597.333zM597.333 277.333h85.333v-298.667h-85.333v298.667zM341.333 362.667h85.333v-384h-85.333v384zM85.333 149.333h85.333v-170.667h-85.333v170.667z" />
<glyph unicode="&#x28;" glyph-name="knowledge-1" d="M661.333-64h-426.667c-11.776 0-21.333 9.557-21.333 21.333v233.813c-113.28 71.765-170.667 185.899-170.667 339.541 0 240.725 187.435 429.312 426.667 429.312 200.576 0 408.021-134.144 408.021-358.613 0.512-8.917 18.005-39.552 30.763-61.952 30.080-52.651 64.128-112.299 60.715-159.915-0.427-14.507 0.213-25.557-8.277-37.632-9.131-13.141-24.533-21.419-41.088-22.144-14.123-0.597-30.421-0.555-43.349-0.299-0.341-50.688-5.419-157.568-41.045-193.195-32.896-32.939-78.251-41.088-152.405-41.856v-127.061c0-11.776-9.557-21.333-21.333-21.333zM256-21.333h384v127.019c0 5.675 2.261 11.136 6.272 15.104s9.557 6.613 15.147 6.229c85.717-0.555 120.747 6.656 143.445 29.397 21.973 21.973 29.867 121.045 28.459 184.448-0.128 5.845 2.176 11.52 6.357 15.701 4.224 4.139 9.771 6.699 15.787 6.101 0.171 0 35.541-1.323 62.208-0.256 3.115 0.171 6.357 1.792 7.936 3.968 0.299 0.811 0.597 14.933 0.683 16.256 2.475 34.645-30.891 93.013-55.211 135.68-23.253 40.704-36.395 64.64-36.395 83.029 0 197.76-185.771 315.989-365.355 315.989-215.339 0-384-169.856-384-386.645 0-142.123 53.888-246.187 160.213-309.248 6.485-3.84 10.453-10.795 10.453-18.347v-224.427zM362.667 533.333h-85.333c-11.776 0-21.333 9.557-21.333 21.333v128c0 11.776 9.557 21.333 21.333 21.333h85.333c11.776 0 21.333-9.557 21.333-21.333v-128c0-11.776-9.557-21.333-21.333-21.333zM298.667 576h42.667v85.333h-42.667v-85.333zM448 320h-85.333c-11.776 0-21.333 9.557-21.333 21.333v128c0 11.776 9.557 21.333 21.333 21.333h85.333c11.776 0 21.333-9.557 21.333-21.333v-128c0-11.776-9.557-21.333-21.333-21.333zM384 362.667h42.667v85.333h-42.667v-85.333zM704 533.333h-85.333c-11.776 0-21.333 9.557-21.333 21.333v128c0 11.776 9.557 21.333 21.333 21.333h85.333c11.776 0 21.333-9.557 21.333-21.333v-128c0-11.776-9.557-21.333-21.333-21.333zM640 576h42.667v85.333h-42.667v-85.333zM426.667 704h42.667v-170.667h-42.667v170.667zM512 704h42.667v-170.667h-42.667v170.667zM256 490.667h42.667v-170.667h-42.667v170.667zM512 490.667h42.667v-170.667h-42.667v170.667zM597.333 490.667h42.667v-170.667h-42.667v170.667zM682.667 490.667h42.667v-170.667h-42.667v170.667z" />
<glyph unicode="&#x29;" glyph-name="knowledge-2" d="M856.448 448c21.589 24.32 41.045 48.725 57.344 72.789 61.099 90.155 75.776 167.381 41.429 217.344-23.040 33.451-65.92 51.157-123.989 51.157-38.101 0-82.475-8.064-130.048-22.229-38.784 118.101-98.944 192.939-167.851 192.939-68.864 0-129.067-74.837-167.851-192.939-47.573 14.165-91.947 22.229-130.005 22.229-58.069 0-100.949-17.707-123.989-51.157-34.389-49.963-19.669-127.147 41.429-217.344 16.256-24.064 35.712-48.469 57.301-72.789-21.589-24.32-41.045-48.725-57.344-72.789-61.099-90.155-75.776-167.381-41.429-217.344 23.040-33.451 65.92-51.157 123.989-51.157 38.101 0 82.475 8.064 130.048 22.229 38.784-118.101 98.987-192.939 167.851-192.939 68.907 0 129.067 74.837 167.851 192.939 47.573-14.165 91.947-22.229 130.048-22.229 0.043 0 0.043 0 0.043 0 58.027 0 100.907 17.707 123.947 51.157 34.389 49.963 19.669 127.147-41.429 217.344-16.299 24.064-35.755 48.469-57.344 72.789zM831.189 746.624c30.293 0 70.229-5.675 88.832-32.683 23.424-34.005 8.235-95.701-41.6-169.259-14.635-21.632-31.915-43.563-51.157-65.408-25.899 26.539-54.528 52.779-85.419 78.251-5.376 61.355-15.232 118.144-28.715 168.747 43.435 12.928 83.755 20.352 118.059 20.352zM630.059 307.371c-32-22.016-64.427-41.771-96.725-59.776-32.256 18.005-64.725 37.803-96.725 59.776-24.619 16.896-48.128 34.517-70.613 52.48-2.091 28.331-3.328 57.643-3.328 88.149s1.237 59.819 3.328 88.107c22.485 18.005 45.995 35.584 70.613 52.48 32 22.016 64.469 41.771 96.725 59.776 32.299-18.005 64.725-37.803 96.725-59.776 24.619-16.896 48.128-34.517 70.613-52.48 2.091-28.288 3.328-57.6 3.328-88.107s-1.237-59.819-3.328-88.107c-22.485-18.005-45.995-35.584-70.613-52.523zM695.083 301.525c-5.376-43.008-13.141-82.56-22.485-118.272-30.635 11.179-62.251 24.832-94.635 40.96 25.557 14.976 51.072 30.72 76.245 48 13.909 9.557 27.563 19.371 40.875 29.312zM488.704 224.213c-32.384-16.128-64-29.781-94.635-40.96-9.387 35.755-17.109 75.307-22.485 118.272 13.312-9.941 26.965-19.755 40.875-29.355 25.173-17.237 50.688-33.024 76.245-47.957zM321.024 397.696c-18.688 16.597-36.267 33.408-52.693 50.304 16.427 16.896 34.005 33.707 52.693 50.304-0.64-16.555-1.024-33.323-1.024-50.304s0.384-33.749 1.024-50.304zM371.584 594.475c5.376 42.965 13.141 82.517 22.485 118.272 30.635-11.179 62.251-24.832 94.635-40.96-25.557-14.976-51.072-30.72-76.245-48-13.909-9.557-27.563-19.371-40.875-29.312zM577.963 671.787c32.384 16.128 64 29.781 94.635 40.96 9.387-35.755 17.109-75.307 22.485-118.272-13.312 9.941-26.965 19.755-40.875 29.355-25.173 17.237-50.688 33.024-76.245 47.957zM745.643 498.304c18.688-16.597 36.309-33.365 52.693-50.304-16.427-16.896-34.005-33.707-52.693-50.304 0.64 16.555 1.024 33.323 1.024 50.304s-0.384 33.749-1.024 50.304zM533.333 917.333c45.397 0 93.781-61.099 127.36-163.797-41.131-14.805-83.925-33.664-127.36-56.619-43.435 22.955-86.229 41.813-127.36 56.619 33.579 102.699 81.963 163.797 127.36 163.797zM188.203 544.725c-49.835 73.515-64.981 135.253-41.557 169.216 18.603 27.008 58.539 32.683 88.832 32.683 34.347 0 74.667-7.424 118.059-20.352-13.483-50.603-23.381-107.392-28.757-168.747-30.891-25.472-59.52-51.712-85.419-78.251-19.243 21.888-36.523 43.819-51.157 65.451zM235.477 149.376c-30.293 0-70.229 5.675-88.832 32.683-23.424 34.005-8.235 95.701 41.6 169.259 14.635 21.632 31.915 43.563 51.157 65.408 25.899-26.539 54.528-52.779 85.419-78.251 5.376-61.355 15.232-118.144 28.715-168.747-43.392-12.928-83.755-20.352-118.059-20.352zM533.333-21.333c-45.397 0-93.781 61.099-127.36 163.797 41.131 14.805 83.968 33.664 127.36 56.619 43.477-22.955 86.229-41.813 127.36-56.619-33.579-102.699-81.963-163.797-127.36-163.797zM920.021 182.059c-18.603-27.008-58.539-32.683-88.789-32.683 0 0 0 0-0.043 0-34.347 0-74.624 7.424-118.059 20.352 13.44 50.645 23.339 107.435 28.715 168.747 30.891 25.472 59.52 51.712 85.419 78.251 19.243-21.888 36.523-43.776 51.157-65.408 49.877-73.557 65.024-135.296 41.6-169.259zM533.333 554.667c-58.837 0-106.667-47.829-106.667-106.667s47.829-106.667 106.667-106.667 106.667 47.829 106.667 106.667-47.829 106.667-106.667 106.667zM533.333 384c-35.285 0-64 28.715-64 64s28.715 64 64 64 64-28.715 64-64-28.715-64-64-64z" />
<glyph unicode="&#x2a;" glyph-name="wallet" d="M874.667 960h-725.333c-41.6 0-79.232-17.067-106.368-44.629-2.347-1.664-4.352-3.797-5.888-6.315-23.083-26.325-37.077-60.757-37.077-98.389v-554.667c0-79.872 63.232-159.787 141.056-178.133l476.16-111.957c11.136-2.645 22.144-3.925 32.853-3.925 27.307 0 52.565 8.448 73.301 24.875 28.757 22.784 44.629 57.771 44.629 98.475v106.667h106.667c82.347 0 149.333 66.987 149.333 149.333v469.333c0 82.347-66.987 149.333-149.333 149.333zM725.333 85.333c0-27.392-10.112-50.475-28.501-65.024-18.432-14.592-43.179-19.072-69.888-12.843l-476.117 111.957c-58.624 13.824-108.16 76.373-108.16 136.576v554.667c0 23.68 7.765 45.568 20.864 63.275l553.771-138.24c58.581-14.635 108.032-78.037 108.032-138.368v-512zM981.333 341.333c0-58.795-47.829-106.667-106.667-106.667h-106.667v341.333h64c11.776 0 21.333 9.557 21.333 21.333s-9.557 21.333-21.333 21.333h-66.048c-9.856 72.32-67.84 140.8-138.283 158.421l-49.024 12.245h253.355c11.776 0 21.333 9.557 21.333 21.333s-9.557 21.333-21.333 21.333h-424.235l-302.891 75.605c13.525 6.229 28.587 9.728 44.459 9.728h725.333c58.837 0 106.667-47.872 106.667-106.667v-469.333zM554.667 490.667c-58.837 0-106.667-47.872-106.667-106.667s47.829-106.667 106.667-106.667 106.667 47.872 106.667 106.667-47.829 106.667-106.667 106.667zM554.667 320c-35.285 0-64 28.715-64 64s28.715 64 64 64 64-28.715 64-64-28.715-64-64-64z" />
<glyph unicode="&#x2b;" glyph-name="location-2" d="M640 897.195l256-182.869v-202.325c0-11.776 9.557-21.333 21.333-21.333s21.333 9.557 21.333 21.333v213.333c0 6.912-3.328 13.355-8.917 17.365l-298.667 213.333c-0.384 0.256-0.896 0.128-1.28 0.427-3.285 2.048-6.955 3.541-11.136 3.541s-7.851-1.493-11.136-3.541c-0.384-0.256-0.896-0.128-1.28-0.427l-286.251-204.501-286.251 204.501c-6.485 4.693-15.061 5.291-22.187 1.621s-11.563-10.965-11.563-18.987v-682.667c0-6.912 3.328-13.355 8.917-17.365l298.667-213.333c0.384-0.299 0.896-0.171 1.28-0.427 3.285-2.048 6.955-3.541 11.136-3.541s7.851 1.493 11.136 3.541c0.384 0.256 0.896 0.128 1.28 0.427l256 182.869c9.6 6.827 11.819 20.181 4.949 29.739-6.869 9.6-20.139 11.819-29.739 4.992l-222.293-158.805v630.272l256 182.869v-385.237c0-11.776 9.557-21.333 21.333-21.333s21.333 9.557 21.333 21.333v385.195zM42.667 897.195l256-182.869v-630.229l-256 182.827v630.272zM832 448c-105.856 0-192-86.144-192-192 0-99.115 157.653-290.816 175.616-312.32 4.053-4.864 10.069-7.68 16.384-7.68s12.331 2.816 16.384 7.68c17.963 21.504 175.616 213.205 175.616 312.32 0 105.856-86.144 192-192 192zM832-8.832c-53.12 66.816-149.333 201.173-149.333 264.832 0 82.347 66.987 149.333 149.333 149.333s149.333-66.987 149.333-149.333c0-63.616-96.256-197.973-149.333-264.832zM832 341.333c-47.061 0-85.333-38.272-85.333-85.333s38.272-85.333 85.333-85.333 85.333 38.272 85.333 85.333c0 47.061-38.272 85.333-85.333 85.333zM832 213.333c-23.509 0-42.667 19.157-42.667 42.667s19.157 42.667 42.667 42.667 42.667-19.157 42.667-42.667-19.157-42.667-42.667-42.667z" />
<glyph unicode="&#x2c;" glyph-name="graph-bar-3" d="M1002.667-21.333h-21.333v618.667c0 11.776-9.557 21.333-21.333 21.333h-128c-11.776 0-21.333-9.557-21.333-21.333v-618.667h-85.333v320c0 11.776-9.557 21.333-21.333 21.333h-128c-11.776 0-21.333-9.557-21.333-21.333v-320h-85.333v405.333c0 11.776-9.557 21.333-21.333 21.333h-128c-11.776 0-21.333-9.557-21.333-21.333v-405.333h-85.333v192c0 11.776-9.557 21.333-21.333 21.333h-128c-11.776 0-21.333-9.557-21.333-21.333v-192h-21.333c-11.776 0-21.333-9.557-21.333-21.333s9.557-21.333 21.333-21.333h981.333c11.776 0 21.333 9.557 21.333 21.333s-9.557 21.333-21.333 21.333zM85.333-21.333v170.667h85.333v-170.667h-85.333zM341.333-21.333v384h85.333v-384h-85.333zM597.333-21.333v298.667h85.333v-298.667h-85.333zM853.333-21.333v597.333h85.333v-597.333h-85.333zM128 405.333c35.285 0 64 28.715 64 64 0 7.765-1.579 15.147-4.181 22.059l163.669 136.448c9.6-5.675 20.608-9.173 32.512-9.173 20.437 0 38.485 9.813 50.219 24.789l141.909-47.275c0.64-34.773 29.013-62.848 63.872-62.848 35.285 0 64 28.715 64 64 0 11.563-3.328 22.315-8.747 31.701l177.792 207.403c7.125-2.773 14.848-4.437 22.955-4.437 35.285 0 64 28.715 64 64s-28.715 64-64 64-64-28.715-64-64c0-11.563 3.328-22.272 8.704-31.701l-177.792-207.403c-7.125 2.731-14.848 4.437-22.912 4.437-20.437 0-38.443-9.813-50.219-24.789l-141.909 47.317c-0.683 34.688-29.013 62.805-63.872 62.805-35.285 0-64-28.715-64-64 0-7.808 1.579-15.189 4.181-22.059l-163.669-136.448c-9.6 5.675-20.608 9.173-32.512 9.173-35.285 0-64-28.715-64-64s28.715-64 64-64zM896 917.333c11.733 0 21.333-9.557 21.333-21.333s-9.6-21.333-21.333-21.333-21.333 9.557-21.333 21.333 9.6 21.333 21.333 21.333zM640 618.667c11.733 0 21.333-9.557 21.333-21.333s-9.6-21.333-21.333-21.333-21.333 9.557-21.333 21.333 9.6 21.333 21.333 21.333zM384 704c11.733 0 21.333-9.557 21.333-21.333s-9.6-21.333-21.333-21.333-21.333 9.557-21.333 21.333 9.6 21.333 21.333 21.333zM128 490.667c11.733 0 21.333-9.557 21.333-21.333s-9.6-21.333-21.333-21.333-21.333 9.557-21.333 21.333 9.6 21.333 21.333 21.333z" />
<glyph unicode="&#x2d;" glyph-name="law" d="M961.792 277.333h-26.368l-116.395 426.667h100.096c11.776 0 21.333 9.557 21.333 21.333s-9.557 21.333-21.333 21.333h-407.125v64c0 11.776-9.557 21.333-21.333 21.333s-21.333-9.557-21.333-21.333v-64h-405.333c-11.776 0-21.333-9.557-21.333-21.333s9.557-21.333 21.333-21.333h100.096l-116.395-426.667h-26.368c-11.776 0-21.333-9.557-21.333-21.333 0-105.899 86.144-192 192-192s192 86.101 192 192c0 11.776-9.557 21.333-21.333 21.333h-26.368l-116.395 426.667h249.429v-21.333c0-11.776 9.557-21.333 21.333-21.333s21.333 9.557 21.333 21.333v21.333h251.221l-116.395-426.667h-26.368c-11.776 0-21.333-9.557-21.333-21.333 0-105.899 86.144-192 192-192s192 86.101 192 192c0 11.776-9.557 21.333-21.333 21.333zM192 106.667c-75.093 0-137.429 55.723-147.84 128h295.68c-10.411-72.277-72.747-128-147.84-128zM91.904 277.333l100.096 366.933 100.096-366.933h-200.192zM791.125 644.267l100.096-366.933h-200.149l100.053 366.933zM791.125 106.667c-75.093 0-137.429 55.723-147.84 128h295.68c-10.411-72.277-72.747-128-147.84-128z" />
<glyph unicode="&#x2e;" glyph-name="graph-bar-4" d="M1002.667 21.333h-21.333v618.667c0 11.776-9.557 21.333-21.333 21.333h-128c-11.776 0-21.333-9.557-21.333-21.333v-618.667h-85.333v320c0 11.776-9.557 21.333-21.333 21.333h-128c-11.776 0-21.333-9.557-21.333-21.333v-320h-85.333v405.333c0 11.776-9.557 21.333-21.333 21.333h-128c-11.776 0-21.333-9.557-21.333-21.333v-405.333h-85.333v192c0 11.776-9.557 21.333-21.333 21.333h-128c-11.776 0-21.333-9.557-21.333-21.333v-192h-21.333c-11.776 0-21.333-9.557-21.333-21.333s9.557-21.333 21.333-21.333h981.333c11.776 0 21.333 9.557 21.333 21.333s-9.557 21.333-21.333 21.333zM853.333 618.667h85.333v-597.333h-85.333v597.333zM597.333 320h85.333v-298.667h-85.333v298.667zM341.333 405.333h85.333v-384h-85.333v384zM85.333 192h85.333v-170.667h-85.333v170.667zM128 490.667c4.821 0 9.685 1.621 13.653 4.949l246.869 205.739 244.693-81.579c7.893-2.645 16.725-0.427 22.357 5.717l240.427 258.816v-116.309c0-11.776 9.557-21.333 21.333-21.333s21.333 9.557 21.333 21.333v170.667c0 0.085-0.085 0.213-0.085 0.341 0 1.749-0.597 3.456-1.024 5.205-0.256 0.981-0.299 2.005-0.725 2.987-0.384 0.853-1.109 1.579-1.621 2.432-0.939 1.579-1.877 3.115-3.157 4.395-0.085 0.043-0.128 0.171-0.213 0.256-0.683 0.64-1.536 0.896-2.304 1.408-1.408 1.024-2.773 2.091-4.48 2.731-1.323 0.555-2.688 0.64-4.139 0.853-1.195 0.213-2.304 0.725-3.584 0.725h-170.667c-11.776 0-21.333-9.557-21.333-21.333s9.557-21.333 21.333-21.333h121.771l-234.709-252.757-242.987 80.981c-7.083 2.432-14.72 0.896-20.395-3.84l-256-213.333c-9.045-7.552-10.24-20.992-2.688-30.080 4.181-5.035 10.24-7.637 16.341-7.637z" />
<glyph unicode="&#x2f;" glyph-name="graph-line-1" d="M938.667 341.333c47.061 0 85.333 38.272 85.333 85.333s-38.272 85.333-85.333 85.333-85.333-38.272-85.333-85.333c0-7.979 1.451-15.488 3.499-22.827l-155.904-88.277c-15.531 15.872-37.035 25.771-60.928 25.771-39.637 0-72.747-27.307-82.304-64h-155.392c-9.557 36.693-42.667 64-82.304 64-47.061 0-85.333-38.272-85.333-85.333 0-8.533 1.664-16.64 4.011-24.448l-196.011-128.128v341.76l260.437 155.264c15.36-15.104 36.352-24.448 59.563-24.448 30.037 0 56.363 15.701 71.595 39.253l163.328-58.283c-0.043-0.811-0.256-1.536-0.256-2.304 0-47.061 38.272-85.333 85.333-85.333s85.333 38.272 85.333 85.333c0 19.627-6.912 37.504-18.133 51.925l150.485 192.213c11.605-5.845 24.491-9.472 38.315-9.472 47.061 0 85.333 38.272 85.333 85.333s-38.272 85.333-85.333 85.333-85.333-38.272-85.333-85.333c0-17.749 5.461-34.261 14.805-47.915l-151.765-193.749c-10.325 4.437-21.717 6.997-33.707 6.997-31.147 0-58.24-16.981-73.131-42.069l-162.091 57.899c0.128 1.835 0.555 3.627 0.555 5.504 0 47.061-38.272 85.333-85.333 85.333s-85.333-38.272-85.333-85.333c0-8.491 1.621-16.512 3.925-24.235l-238.592-142.208v443.776c0 11.776-9.557 21.333-21.333 21.333s-21.333-9.557-21.333-21.333v-981.333c0-11.776 9.557-21.333 21.333-21.333h981.333c11.776 0 21.333 9.557 21.333 21.333s-9.557 21.333-21.333 21.333h-960v73.771l217.899 142.464c15.403-14.933 36.352-24.235 59.435-24.235 39.637 0 72.747 27.307 82.304 64h155.435c9.557-36.693 42.667-64 82.304-64 47.061 0 85.333 38.272 85.333 85.333 0 7.808-1.408 15.232-3.371 22.443l155.989 88.405c15.445-15.744 36.907-25.515 60.672-25.515zM938.667 917.333c23.552 0 42.667-19.157 42.667-42.667s-19.115-42.667-42.667-42.667-42.667 19.157-42.667 42.667 19.115 42.667 42.667 42.667zM682.667 597.333c23.552 0 42.667-19.157 42.667-42.667s-19.115-42.667-42.667-42.667-42.667 19.157-42.667 42.667 19.115 42.667 42.667 42.667zM362.667 704c23.552 0 42.667-19.157 42.667-42.667s-19.115-42.667-42.667-42.667-42.667 19.157-42.667 42.667 19.115 42.667 42.667 42.667zM320 213.333c-23.552 0-42.667 19.157-42.667 42.667s19.115 42.667 42.667 42.667 42.667-19.157 42.667-42.667-19.115-42.667-42.667-42.667zM640 213.333c-23.552 0-42.667 19.157-42.667 42.667s19.115 42.667 42.667 42.667 42.667-19.157 42.667-42.667-19.115-42.667-42.667-42.667zM938.667 469.333c23.552 0 42.667-19.157 42.667-42.667s-19.115-42.667-42.667-42.667-42.667 19.157-42.667 42.667 19.115 42.667 42.667 42.667z" />
<glyph unicode="&#x30;" glyph-name="invoices" d="M960 618.667h-64v64c0 11.819-9.557 21.333-21.333 21.333h-64v64c0 11.819-9.557 21.333-21.333 21.333h-460.501l-79.061 79.104c-4.011 4.011-9.429 6.229-15.104 6.229h-213.333c-11.776 0-21.333-9.515-21.333-21.333v-597.333c0-11.776 9.557-21.333 21.333-21.333s21.333 9.557 21.333 21.333v576h183.168l79.104-79.061c3.968-4.011 9.387-6.272 15.061-6.272h448v-42.667h-661.333c-11.776 0-21.333-9.515-21.333-21.333v-512c0-11.776 9.557-21.333 21.333-21.333s21.333 9.557 21.333 21.333v490.667h725.333v-42.667h-661.333c-11.776 0-21.333-9.515-21.333-21.333v-512c0-11.776 9.557-21.333 21.333-21.333h768c11.776 0 21.333 9.557 21.333 21.333v512c0 11.819-9.557 21.333-21.333 21.333zM938.667 106.667h-725.333v469.333h725.333v-469.333zM832 490.667h-512c-11.776 0-21.333-9.515-21.333-21.333s9.557-21.333 21.333-21.333h512c11.776 0 21.333 9.557 21.333 21.333s-9.557 21.333-21.333 21.333zM554.667 362.667h-234.667c-11.776 0-21.333-9.515-21.333-21.333s9.557-21.333 21.333-21.333h234.667c11.776 0 21.333 9.557 21.333 21.333s-9.557 21.333-21.333 21.333zM554.667 234.667h-234.667c-11.776 0-21.333-9.515-21.333-21.333s9.557-21.333 21.333-21.333h234.667c11.776 0 21.333 9.557 21.333 21.333s-9.557 21.333-21.333 21.333zM832 405.333h-170.667c-11.776 0-21.333-9.557-21.333-21.333v-42.667c0-11.776 9.557-21.333 21.333-21.333s21.333 9.557 21.333 21.333v21.333h42.667v-128h-42.667c-11.776 0-21.333-9.557-21.333-21.333s9.557-21.333 21.333-21.333h128c11.776 0 21.333 9.557 21.333 21.333s-9.557 21.333-21.333 21.333h-42.667v128h42.667v-21.333c0-11.776 9.557-21.333 21.333-21.333s21.333 9.557 21.333 21.333v42.667c0 11.819-9.557 21.333-21.333 21.333z" />
<glyph unicode="&#x31;" glyph-name="customization" d="M938.667 832h-853.333c-47.061 0-85.333-39.979-85.333-89.088v-632.491c0-49.109 38.272-89.088 85.333-89.088h405.333v-42.667h-277.333c-11.776 0-21.333-9.557-21.333-21.333s9.557-21.333 21.333-21.333h597.333c11.776 0 21.333 9.557 21.333 21.333s-9.557 21.333-21.333 21.333h-277.333v42.667h405.333c47.061 0 85.333 39.979 85.333 89.088v632.491c0 49.109-38.272 89.088-85.333 89.088zM85.333 789.333h853.333c23.509 0 42.667-20.821 42.667-46.421v-508.245h-938.667v508.245c0 25.6 19.157 46.421 42.667 46.421zM938.667 64h-853.333c-23.509 0-42.667 20.821-42.667 46.421v81.579h938.667v-81.579c0-25.6-19.157-46.421-42.667-46.421zM512 170.667c-23.509 0-42.667-19.157-42.667-42.667s19.157-42.667 42.667-42.667 42.667 19.157 42.667 42.667-19.157 42.667-42.667 42.667zM298.667 344.363v-24.363c0-11.776 9.557-21.333 21.333-21.333s21.333 9.557 21.333 21.333v24.363c36.693 9.557 64 42.667 64 82.304s-27.307 72.789-64 82.304v195.029c0 11.776-9.557 21.333-21.333 21.333-11.733 0-21.333-9.515-21.333-21.333v-195.029c-36.693-9.557-64-42.667-64-82.304s27.307-72.789 64-82.304zM320 469.333c23.509 0 42.667-19.157 42.667-42.667s-19.157-42.667-42.667-42.667-42.667 19.157-42.667 42.667 19.157 42.667 42.667 42.667zM490.667 515.029v-195.029c0-11.776 9.557-21.333 21.333-21.333s21.333 9.557 21.333 21.333v195.029c36.693 9.557 64 42.667 64 82.304s-27.307 72.789-64 82.304v24.363c0 11.776-9.557 21.333-21.333 21.333s-21.333-9.557-21.333-21.333v-24.363c-36.693-9.557-64-42.667-64-82.304s27.307-72.789 64-82.304zM512 640c23.509 0 42.667-19.157 42.667-42.667s-19.157-42.667-42.667-42.667-42.667 19.157-42.667 42.667 19.157 42.667 42.667 42.667zM682.667 344.363v-24.363c0-11.776 9.557-21.333 21.333-21.333s21.333 9.557 21.333 21.333v24.363c36.693 9.557 64 42.667 64 82.304s-27.307 72.789-64 82.304v195.029c0 11.776-9.557 21.333-21.333 21.333-11.733 0-21.333-9.515-21.333-21.333v-195.029c-36.693-9.557-64-42.667-64-82.304s27.307-72.789 64-82.304zM704 469.333c23.509 0 42.667-19.157 42.667-42.667s-19.157-42.667-42.667-42.667-42.667 19.157-42.667 42.667 19.157 42.667 42.667 42.667z" />
<glyph unicode="&#x32;" glyph-name="optimization" d="M917.333 874.667h-810.667c-58.837 0-106.667-47.872-106.667-106.667v-597.333c0-58.795 47.829-106.667 106.667-106.667h810.667c58.837 0 106.667 47.872 106.667 106.667v597.333c0 58.795-47.829 106.667-106.667 106.667zM106.667 832h810.667c35.285 0 64-28.715 64-64v-106.667h-938.667v106.667c0 35.285 28.715 64 64 64zM917.333 106.667h-810.667c-35.285 0-64 28.715-64 64v448h938.667v-448c0-35.285-28.715-64-64-64zM213.333 746.667c0-23.564-19.103-42.667-42.667-42.667s-42.667 19.103-42.667 42.667c0 23.564 19.103 42.667 42.667 42.667s42.667-19.103 42.667-42.667zM341.333 746.667c0-23.564-19.103-42.667-42.667-42.667s-42.667 19.103-42.667 42.667c0 23.564 19.103 42.667 42.667 42.667s42.667-19.103 42.667-42.667zM469.333 746.667c0-23.564-19.103-42.667-42.667-42.667s-42.667 19.103-42.667 42.667c0 23.564 19.103 42.667 42.667 42.667s42.667-19.103 42.667-42.667zM256 234.667h-85.333c-11.776 0-21.333-9.557-21.333-21.333s9.557-21.333 21.333-21.333h85.333c11.776 0 21.333 9.557 21.333 21.333s-9.557 21.333-21.333 21.333zM300.971 359.808l-73.856 42.667c-10.155 5.76-23.253 2.389-29.141-7.808-5.931-10.197-2.432-23.253 7.808-29.184l73.856-42.667c10.24-5.888 23.296-2.347 29.141 7.851 5.888 10.197 2.389 23.253-7.808 29.141zM359.808 519.637c-5.845 10.24-18.944 13.696-29.141 7.808s-13.696-18.944-7.808-29.141l42.667-73.856c5.845-10.155 18.859-13.696 29.141-7.808 10.197 5.888 13.696 18.944 7.808 29.141l-42.667 73.856zM512 448.085c11.776 0 21.333 9.557 21.333 21.333v85.291c0 11.776-9.557 21.333-21.333 21.333s-21.333-9.557-21.333-21.333v-85.291c0-11.776 9.557-21.333 21.333-21.333zM826.112 394.752c-5.888 10.197-18.901 13.696-29.141 7.808l-73.856-42.624c-10.197-5.888-13.696-18.944-7.808-29.141 5.845-10.155 18.859-13.696 29.141-7.808l73.856 42.624c10.24 5.888 13.739 18.944 7.808 29.141zM853.419 234.752h-85.291c-11.776 0-21.333-9.557-21.333-21.333s9.557-21.333 21.333-21.333h85.291c11.776 0 21.333 9.557 21.333 21.333s-9.557 21.333-21.333 21.333zM667.563 527.104l-234.667-234.667c-3.968-4.011-6.229-9.429-6.229-15.104v-106.667c0-13.227 12.032-23.595 25.515-20.907l106.667 21.333c7.083 1.408 12.971 6.272 15.616 13.013l128 320c8.576 21.291-18.517 39.339-34.901 22.997zM539.179 210.688l-69.845-13.995v71.808l154.923 154.923-85.077-212.736z" />
<glyph unicode="&#x33;" glyph-name="computers" d="M234.667 576h-173.952c-9.984 0-18.048 9.557-18.048 21.333v21.333h490.667c11.776 0 21.333 9.557 21.333 21.333v256c0 35.285-27.264 64-60.715 64h-433.237c-33.451 0-60.715-28.715-60.715-64v-298.667c0-35.285 27.264-64 60.715-64h173.952c11.776 0 21.333 9.557 21.333 21.333s-9.557 21.333-21.333 21.333zM60.715 917.333h433.237c9.984 0 18.048-9.557 18.048-21.333v-234.667h-469.333v234.667c0 11.776 8.064 21.333 18.048 21.333zM234.667 490.667h-128c-11.776 0-21.333-9.557-21.333-21.333s9.557-21.333 21.333-21.333h128c11.776 0 21.333 9.557 21.333 21.333s-9.557 21.333-21.333 21.333zM934.4 576h-546.133c-49.408 0-89.6-44.032-89.6-98.133v-358.4c0-54.144 40.192-98.133 89.643-98.133h251.691v-42.667h-149.333c-11.776 0-21.333-9.557-21.333-21.333s9.557-21.333 21.333-21.333h341.333c11.776 0 21.333 9.557 21.333 21.333s-9.557 21.333-21.333 21.333h-149.333v42.667h251.733c49.408 0 89.6 43.989 89.6 98.133v358.4c0 54.101-40.149 98.133-89.6 98.133zM341.333 477.867c0 30.592 21.077 55.467 46.976 55.467h546.133c25.856 0 46.933-24.875 46.933-55.467v-285.867h-640.043v285.867zM934.4 64h-546.133c-25.856 0-46.933 24.875-46.933 55.467v29.867h640v-29.867c0-30.592-21.035-55.467-46.933-55.467zM682.667 106.667c0-11.782-9.551-21.333-21.333-21.333s-21.333 9.551-21.333 21.333c0 11.782 9.551 21.333 21.333 21.333s21.333-9.551 21.333-21.333z" />
<glyph unicode="&#x34;" glyph-name="security" d="M938.667 832h-853.333c-47.061 0-85.333-39.979-85.333-89.088v-632.491c0-49.109 38.272-89.088 85.333-89.088h405.333v-42.667h-277.333c-11.776 0-21.333-9.557-21.333-21.333s9.557-21.333 21.333-21.333h597.333c11.776 0 21.333 9.557 21.333 21.333s-9.557 21.333-21.333 21.333h-277.333v42.667h405.333c47.061 0 85.333 39.979 85.333 89.088v632.491c0 49.109-38.272 89.088-85.333 89.088zM85.333 789.333h853.333c23.509 0 42.667-20.821 42.667-46.421v-508.245h-938.667v508.245c0 25.6 19.157 46.421 42.667 46.421zM938.667 64h-853.333c-23.509 0-42.667 20.821-42.667 46.421v81.579h938.667v-81.579c0-25.6-19.157-46.421-42.667-46.421zM512 170.667c-23.509 0-42.667-19.157-42.667-42.667s19.157-42.667 42.667-42.667 42.667 19.157 42.667 42.667-19.157 42.667-42.667 42.667zM420.437 527.104c-8.32 8.32-21.845 8.32-30.165 0s-8.32-21.845 0-30.165l85.333-85.333c4.139-4.181 9.6-6.272 15.061-6.272s10.923 2.091 15.104 6.229l170.667 170.667c8.32 8.32 8.32 21.845 0 30.165s-21.845 8.32-30.165 0l-155.605-155.563-70.229 70.272zM512 298.667c117.632 0 213.333 95.701 213.333 213.333 0 11.776-9.557 21.333-21.333 21.333s-21.333-9.557-21.333-21.333c0-94.123-76.544-170.667-170.667-170.667s-170.667 76.544-170.667 170.667 76.544 170.667 170.667 170.667c27.819 0 54.357-6.485 78.848-19.285 10.496-5.419 23.339-1.408 28.8 9.045 5.419 10.453 1.408 23.339-9.045 28.8-30.251 15.787-64.341 24.107-98.603 24.107-117.632 0-213.333-95.701-213.333-213.333s95.701-213.333 213.333-213.333z" />
<glyph unicode="&#x35;" glyph-name="growth" d="M974.379 186.411l-233.344 213.333c-4.096 3.712-9.216 5.589-14.379 5.589v298.667h105.344c8.832 0 16.725 5.419 19.883 13.611 3.2 8.192 0.981 17.536-5.504 23.467l-233.344 213.333c-8.149 7.467-20.608 7.424-28.757 0l-234.667-213.333c-6.485-5.888-8.704-15.232-5.504-23.424 3.157-8.235 11.093-13.653 19.883-13.653h106.667v-148.437l-156.245 142.848c-8.149 7.467-20.608 7.424-28.757 0l-234.667-213.333c-6.528-5.888-8.747-15.275-5.547-23.467 3.157-8.192 11.093-13.611 19.883-13.611h106.667v-490.667c0-11.776 9.557-21.333 21.333-21.333h213.333c11.776 0 21.333 9.557 21.333 21.333v490.667h42.667v-490.667c0-11.776 9.557-21.333 21.333-21.333h341.333c11.776 0 21.333 9.557 21.333 21.333v192h105.344c8.832 0 16.725 5.419 19.883 13.611 3.2 8.192 1.024 17.536-5.504 23.467zM406.656 490.667c-11.776 0-21.333-9.557-21.333-21.333v-490.667h-170.667v490.667c0 11.776-9.557 21.333-21.333 21.333h-72.789l179.413 163.115 178.432-163.115h-71.723zM533.333 448c8.832 0 16.725 5.419 19.883 13.611 3.2 8.192 0.981 17.536-5.504 23.467l-34.389 31.445v208.811c0 11.776-9.557 21.333-21.333 21.333h-72.789l179.456 163.115 178.389-163.115h-71.723c-11.776 0-21.333-9.557-21.333-21.333v-351.317l-170.667-155.136v229.12h20.011zM513.323 149.333h85.333v-170.667h-85.333v170.667zM833.323 192c-11.776 0-21.333-9.557-21.333-21.333v-192h-170.667v192c0 11.776-9.557 21.333-21.333 21.333h-72.832l169.173 153.813c2.261 1.365 4.139 3.072 5.717 5.163l4.523 4.139 178.475-163.115h-71.723z" />
<glyph unicode="&#x36;" glyph-name="folder" d="M1002.667 789.333h-588.501l-79.061 79.104c-4.011 4.011-9.429 6.229-15.104 6.229h-298.667c-11.776 0-21.333-9.515-21.333-21.333v-810.667c0-11.776 9.557-21.333 21.333-21.333h981.333c11.776 0 21.333 9.557 21.333 21.333v725.333c0 11.819-9.557 21.333-21.333 21.333zM981.333 64h-938.667v768h268.501l79.104-79.061c3.968-4.011 9.387-6.272 15.061-6.272h576v-682.667z" />
<glyph unicode="&#x37;" glyph-name="folder-network" d="M960 789.333h-631.168l-79.061 79.104c-4.011 4.011-9.429 6.229-15.104 6.229h-213.333c-11.776 0-21.333-9.515-21.333-21.333v-682.667c0-11.776 9.557-21.333 21.333-21.333h448v-128h-256c-11.776 0-21.333-9.557-21.333-21.333s9.557-21.333 21.333-21.333h554.667c11.776 0 21.333 9.557 21.333 21.333s-9.557 21.333-21.333 21.333h-256v128h448c11.776 0 21.333 9.557 21.333 21.333v597.333c0 11.819-9.557 21.333-21.333 21.333zM938.667 192h-896v640h183.168l79.104-79.061c3.968-4.011 9.387-6.272 15.061-6.272h618.667v-554.667zM42.667 0c0-11.782-9.551-21.333-21.333-21.333s-21.333 9.551-21.333 21.333c0 11.782 9.551 21.333 21.333 21.333s21.333-9.551 21.333-21.333zM128 0c0-11.782-9.551-21.333-21.333-21.333s-21.333 9.551-21.333 21.333c0 11.782 9.551 21.333 21.333 21.333s21.333-9.551 21.333-21.333zM896 0c0-11.782-9.551-21.333-21.333-21.333s-21.333 9.551-21.333 21.333c0 11.782 9.551 21.333 21.333 21.333s21.333-9.551 21.333-21.333zM981.333 0c0-11.782-9.551-21.333-21.333-21.333s-21.333 9.551-21.333 21.333c0 11.782 9.551 21.333 21.333 21.333s21.333-9.551 21.333-21.333z" />
<glyph unicode="&#x38;" glyph-name="folder-check" d="M746.667 490.667c-152.917 0-277.333-124.416-277.333-277.333s124.416-277.333 277.333-277.333 277.333 124.416 277.333 277.333-124.416 277.333-277.333 277.333zM746.667-21.333c-129.408 0-234.667 105.259-234.667 234.667s105.259 234.667 234.667 234.667 234.667-105.259 234.667-234.667-105.259-234.667-234.667-234.667zM859.563 313.771l-155.563-155.563-70.229 70.229c-8.32 8.32-21.845 8.32-30.165 0s-8.32-21.845 0-30.165l85.333-85.333c4.139-4.181 9.6-6.272 15.061-6.272s10.923 2.091 15.104 6.272l170.667 170.667c8.32 8.32 8.32 21.803 0 30.165s-21.845 8.32-30.208 0zM384 234.667h-225.195c7.339 12.629 11.861 27.093 11.861 42.667v469.333h682.667v-192c0-11.776 9.557-21.333 21.333-21.333s21.333 9.557 21.333 21.333v213.333c0 11.819-9.557 21.333-21.333 21.333h-64v64c0 11.819-9.557 21.333-21.333 21.333h-533.333v64c0 11.819-9.557 21.333-21.333 21.333h-213.333c-11.776 0-21.333-9.515-21.333-21.333v-661.333c0-47.061 38.272-85.333 85.333-85.333h298.667c11.776 0 21.333 9.557 21.333 21.333s-9.557 21.333-21.333 21.333zM42.667 277.333v640h170.667v-64c0-11.776 9.557-21.333 21.333-21.333h533.333v-42.667h-618.667c-11.776 0-21.333-9.515-21.333-21.333v-490.667c0-23.509-19.157-42.667-42.667-42.667s-42.667 19.157-42.667 42.667z" />
<glyph unicode="&#x39;" glyph-name="folder-money" d="M746.667 490.667c-152.917 0-277.333-124.416-277.333-277.333s124.416-277.333 277.333-277.333 277.333 124.416 277.333 277.333-124.416 277.333-277.333 277.333zM746.667-21.333c-129.408 0-234.667 105.259-234.667 234.667s105.259 234.667 234.667 234.667 234.667-105.259 234.667-234.667-105.259-234.667-234.667-234.667zM746.667 313.771c20.949 0 38.016-17.024 38.016-38.016 0-11.819 9.557-21.333 21.333-21.333s21.333 9.515 21.333 21.333c0 37.035-25.259 68.011-59.349 77.397v21.504c0 11.776-9.557 21.333-21.333 21.333s-21.333-9.557-21.333-21.333v-21.504c-34.091-9.387-59.349-40.363-59.349-77.397 0-44.459 36.181-80.64 80.683-80.64 20.949 0 38.016-17.067 38.016-38.101 0-20.907-17.024-37.973-38.016-37.973s-38.016 17.067-38.016 37.973c0 11.776-9.557 21.333-21.333 21.333s-21.333-9.557-21.333-21.333c0-37.035 25.259-68.011 59.349-77.397v-21.419c0-11.776 9.557-21.333 21.333-21.333s21.333 9.557 21.333 21.333v21.419c34.091 9.429 59.349 40.405 59.349 77.397 0 44.544-36.181 80.768-80.683 80.768-20.949 0-38.016 17.024-38.016 37.973s17.067 38.016 38.016 38.016zM405.333 234.667h-246.528c7.339 12.629 11.861 27.093 11.861 42.667v469.333h682.667v-213.333c0-11.776 9.557-21.333 21.333-21.333s21.333 9.557 21.333 21.333v234.667c0 11.819-9.557 21.333-21.333 21.333h-64v64c0 11.819-9.557 21.333-21.333 21.333h-533.333v64c0 11.819-9.557 21.333-21.333 21.333h-213.333c-11.776 0-21.333-9.515-21.333-21.333v-661.333c0-47.061 38.272-85.333 85.333-85.333h320c11.776 0 21.333 9.557 21.333 21.333s-9.557 21.333-21.333 21.333zM42.667 277.333v640h170.667v-64c0-11.776 9.557-21.333 21.333-21.333h533.333v-42.667h-618.667c-11.776 0-21.333-9.515-21.333-21.333v-490.667c0-23.509-19.157-42.667-42.667-42.667s-42.667 19.157-42.667 42.667z" />
<glyph unicode="&#x3a;" glyph-name="presentation" d="M960 789.333c11.776 0 21.333 9.557 21.333 21.333v128c0 11.776-9.557 21.333-21.333 21.333h-938.667c-11.776 0-21.333-9.557-21.333-21.333v-128c0-11.776 9.557-21.333 21.333-21.333h64v-554.667h-63.104c-11.776 0-21.333-9.557-21.333-21.333s9.557-21.333 21.333-21.333h447.104v-88.363c-36.693-9.515-64-42.667-64-82.304 0-47.061 38.272-85.333 85.333-85.333s85.333 38.272 85.333 85.333c0 39.637-27.307 72.789-64 82.304v88.363h447.104c11.776 0 21.333 9.557 21.333 21.333s-9.557 21.333-21.333 21.333h-63.104v554.667h64zM533.333 21.333c0-23.509-19.115-42.667-42.667-42.667s-42.667 19.157-42.667 42.667 19.115 42.667 42.667 42.667 42.667-19.157 42.667-42.667zM42.667 917.333h896v-85.333h-896v85.333zM853.333 234.667h-725.333v554.667h725.333v-554.667zM192 277.333h597.333c11.776 0 21.333 9.557 21.333 21.333s-9.557 21.333-21.333 21.333h-64v405.333c0 11.776-9.557 21.333-21.333 21.333h-85.333c-11.776 0-21.333-9.557-21.333-21.333v-405.333h-42.667v149.333c0 11.776-9.557 21.333-21.333 21.333h-85.333c-11.776 0-21.333-9.557-21.333-21.333v-149.333h-42.667v234.667c0 11.776-9.557 21.333-21.333 21.333h-85.333c-11.776 0-21.333-9.557-21.333-21.333v-234.667h-42.667v405.333c0 11.776-9.557 21.333-21.333 21.333s-21.333-9.557-21.333-21.333v-426.667c0-11.776 9.557-21.333 21.333-21.333zM640 704h42.667v-384h-42.667v384zM469.333 448h42.667v-128h-42.667v128zM298.667 533.333h42.667v-213.333h-42.667v213.333z" />
<glyph unicode="&#x3b;" glyph-name="abacus" d="M960 960h-938.667c-11.776 0-21.333-9.557-21.333-21.333v-981.333c0-11.776 9.557-21.333 21.333-21.333h938.667c11.776 0 21.333 9.557 21.333 21.333v981.333c0 11.776-9.557 21.333-21.333 21.333zM704 789.333c-11.733 0-21.333 9.557-21.333 21.333s9.6 21.333 21.333 21.333h85.333c11.733 0 21.333-9.557 21.333-21.333s-9.6-21.333-21.333-21.333h-85.333zM704 874.667c-35.285 0-64-28.715-64-64s28.715-64 64-64h21.333v-42.667h-21.333c-35.285 0-64-28.715-64-64s28.715-64 64-64h21.333v-42.667h-21.333c-35.285 0-64-28.715-64-64s28.715-64 64-64h21.333v-426.667h-213.333v42.667h21.333c35.285 0 64 28.715 64 64s-28.715 64-64 64h-21.333v42.667h21.333c35.285 0 64 28.715 64 64s-28.715 64-64 64h-21.333v426.667h21.333c35.285 0 64 28.715 64 64s-28.715 64-64 64h-21.333v42.667h213.333v-42.667h-21.333zM704 618.667c-11.733 0-21.333 9.557-21.333 21.333s9.6 21.333 21.333 21.333h85.333c11.733 0 21.333-9.557 21.333-21.333s-9.6-21.333-21.333-21.333h-85.333zM704 448c-11.733 0-21.333 9.557-21.333 21.333s9.6 21.333 21.333 21.333h85.333c11.733 0 21.333-9.557 21.333-21.333s-9.6-21.333-21.333-21.333h-85.333zM277.333 106.667c11.733 0 21.333-9.557 21.333-21.333s-9.6-21.333-21.333-21.333h-85.333c-11.733 0-21.333 9.557-21.333 21.333s9.6 21.333 21.333 21.333h85.333zM277.333 21.333c35.285 0 64 28.715 64 64s-28.715 64-64 64h-21.333v426.667h21.333c35.285 0 64 28.715 64 64s-28.715 64-64 64h-21.333v42.667h21.333c35.285 0 64 28.715 64 64s-28.715 64-64 64h-21.333v42.667h213.333v-42.667h-21.333c-35.285 0-64-28.715-64-64s28.715-64 64-64h21.333v-426.667h-21.333c-35.285 0-64-28.715-64-64s28.715-64 64-64h21.333v-42.667h-21.333c-35.285 0-64-28.715-64-64s28.715-64 64-64h21.333v-42.667h-213.333v42.667h21.333zM277.333 661.333c11.733 0 21.333-9.557 21.333-21.333s-9.6-21.333-21.333-21.333h-85.333c-11.733 0-21.333 9.557-21.333 21.333s9.6 21.333 21.333 21.333h85.333zM277.333 832c11.733 0 21.333-9.557 21.333-21.333s-9.6-21.333-21.333-21.333h-85.333c-11.733 0-21.333 9.557-21.333 21.333s9.6 21.333 21.333 21.333h85.333zM448 789.333c-11.733 0-21.333 9.557-21.333 21.333s9.6 21.333 21.333 21.333h85.333c11.733 0 21.333-9.557 21.333-21.333s-9.6-21.333-21.333-21.333h-85.333zM448 234.667c-11.733 0-21.333 9.557-21.333 21.333s9.6 21.333 21.333 21.333h85.333c11.733 0 21.333-9.557 21.333-21.333s-9.6-21.333-21.333-21.333h-85.333zM448 64c-11.733 0-21.333 9.557-21.333 21.333s9.6 21.333 21.333 21.333h85.333c11.733 0 21.333-9.557 21.333-21.333s-9.6-21.333-21.333-21.333h-85.333zM42.667 917.333h170.667v-42.667h-21.333c-35.285 0-64-28.715-64-64s28.715-64 64-64h21.333v-42.667h-21.333c-35.285 0-64-28.715-64-64s28.715-64 64-64h21.333v-426.667h-21.333c-35.285 0-64-28.715-64-64s28.715-64 64-64h21.333v-42.667h-170.667v938.667zM938.667-21.333h-170.667v426.667h21.333c35.285 0 64 28.715 64 64s-28.715 64-64 64h-21.333v42.667h21.333c35.285 0 64 28.715 64 64s-28.715 64-64 64h-21.333v42.667h21.333c35.285 0 64 28.715 64 64s-28.715 64-64 64h-21.333v42.667h170.667v-938.667z" />
<glyph unicode="&#x3c;" glyph-name="graph-line-2" d="M1010.133 894.635c-8.235 3.115-17.749 0.725-23.595-6.016l-267.989-309.205-306.475 102.144c-5.632 1.92-11.861 1.365-17.024-1.536l-352.384-194.56v431.872c0 11.776-9.557 21.333-21.333 21.333s-21.333-9.557-21.333-21.333v-467.627c0-0.256 0-0.555 0-0.811v-491.563c0-11.776 9.557-21.333 21.333-21.333h981.333c11.776 0 21.333 9.557 21.333 21.333v917.333c0 8.875-5.547 16.896-13.867 19.968zM42.667 179.541l325.589 183.125h271.744c2.773 0 5.547 0.555 8.107 1.621l333.227 137.515v-207.573l-342.997-80.725-274.048 21.077c-4.907 0.427-9.728-0.896-13.739-3.712l-307.883-212.864v161.536zM407.467 638.123l311.125-103.68c8.235-2.773 17.195-0.256 22.869 6.229l239.872 276.821v-269.525l-345.557-142.635h-273.109c-3.669 0-7.253-0.939-10.453-2.731l-309.547-174.165v208.299l364.8 201.387zM60.757-21.333l307.84 212.821 269.781-20.736c2.133-0.128 4.437 0 6.485 0.512l336.469 79.147v-271.744h-920.576z" />
<glyph unicode="&#x3d;" glyph-name="quote" d="M469.333 832c-258.773 0-469.333-210.56-469.333-469.333v-64c0-129.365 105.301-234.667 234.667-234.667s234.667 105.301 234.667 234.667-105.301 234.667-234.667 234.667c-74.581 0-141.056-35.115-184.021-89.557 38.016 196.565 211.2 345.557 418.688 345.557 11.776 0 21.333 9.557 21.333 21.333s-9.557 21.333-21.333 21.333zM234.667 490.667c105.856 0 192-86.144 192-192s-86.144-192-192-192-192 86.144-192 192 86.144 192 192 192zM1002.667 832c-258.773 0-469.333-210.56-469.333-469.333v-64c0-129.365 105.301-234.667 234.667-234.667s234.667 105.301 234.667 234.667-105.301 234.667-234.667 234.667c-74.581 0-141.056-35.115-184.021-89.557 38.016 196.565 211.2 345.557 418.688 345.557 11.776 0 21.333 9.557 21.333 21.333s-9.557 21.333-21.333 21.333zM768 490.667c105.856 0 192-86.144 192-192s-86.144-192-192-192-192 86.144-192 192 86.144 192 192 192z" />
<glyph unicode="&#x3e;" glyph-name="graph-pie" d="M874.667 405.333h-405.333v405.333c0 11.776-9.557 21.333-21.333 21.333-247.040 0-448-200.96-448-448s200.96-448 448-448 448 200.96 448 448c0 11.776-9.557 21.333-21.333 21.333zM448-21.333c-223.488 0-405.333 181.845-405.333 405.333 0 216.32 170.368 393.643 384 404.779v-404.779c0-11.776 9.557-21.333 21.333-21.333h404.779c-11.136-213.632-188.459-384-404.779-384zM576 960c-11.776 0-21.333-9.557-21.333-21.333v-426.667c0-11.776 9.557-21.333 21.333-21.333h426.667c11.776 0 21.333 9.557 21.333 21.333 0 247.040-200.96 448-448 448zM597.333 533.333v383.445c206.549-10.752 372.651-176.896 383.445-383.445h-383.445z" />
<glyph unicode="&#x3f;" glyph-name="network-people" d="M589.312 430.976c30.891 23.381 51.157 60.117 51.157 101.76 0 70.571-57.429 128-128 128s-128-57.429-128-128c0-41.6 20.267-78.251 51.072-101.675-67.627-29.739-115.072-97.152-115.072-175.659 0-11.776 9.557-21.333 21.333-21.333h341.333c0.299 0 0.64 0 0.853 0 11.776 0 21.333 9.557 21.333 21.333 0 2.219-0.341 4.352-0.896 6.315-2.56 75.776-49.323 140.331-115.115 169.259zM427.136 532.693c0 47.061 38.272 85.333 85.333 85.333s85.333-38.272 85.333-85.333-38.272-85.333-85.333-85.333-85.333 38.272-85.333 85.333zM364.629 276.693c10.411 72.277 72.747 128 147.84 128s137.429-55.723 147.84-128h-295.68zM725.803 639.104c5.419 0 10.88 2.048 15.061 6.229l119.296 118.528c16.64-10.795 36.352-17.195 57.643-17.195 58.837 0 106.667 47.872 106.667 106.667s-47.829 106.667-106.667 106.667-106.667-47.872-106.667-106.667c0-22.144 6.784-42.709 18.389-59.776l-118.741-117.973c-8.32-8.277-8.405-21.803-0.085-30.165 4.139-4.181 9.6-6.315 15.104-6.315zM917.803 917.333c35.285 0 64-28.715 64-64s-28.715-64-64-64-64 28.715-64 64 28.715 64 64 64zM918.229 149.333c-22.144 0-42.709-6.784-59.776-18.389l-76.501 76.971c-8.277 8.363-21.803 8.363-30.165 0.085s-8.363-21.803-0.085-30.165l77.056-77.525c-10.752-16.683-17.152-36.395-17.152-57.643 0-58.795 47.829-106.667 106.667-106.667s106.667 47.872 106.667 106.667-47.872 106.667-106.709 106.667zM918.229-21.333c-35.285 0-64 28.715-64 64s28.715 64 64 64 64-28.715 64-64-28.672-64-64-64zM107.136 746.667c21.291 0 41.003 6.4 57.643 17.195l119.296-118.528c4.181-4.139 9.643-6.229 15.061-6.229 5.504 0 10.965 2.091 15.104 6.315 8.363 8.363 8.277 21.888-0.085 30.165l-118.741 117.973c11.563 17.067 18.389 37.632 18.389 59.776 0 58.795-47.829 106.667-106.667 106.667s-106.667-47.872-106.667-106.667 47.829-106.667 106.667-106.667zM107.136 917.333c35.285 0 64-28.715 64-64s-28.715-64-64-64-64 28.715-64 64 28.715 64 64 64zM242.944 207.915l-76.501-76.971c-17.067 11.605-37.632 18.389-59.776 18.389-58.837 0-106.667-47.872-106.667-106.667s47.829-106.667 106.667-106.667 106.667 47.872 106.667 106.667c0 21.248-6.4 40.96-17.152 57.643l77.056 77.525c8.277 8.32 8.277 21.845-0.085 30.165s-21.888 8.277-30.208-0.085zM106.667-21.333c-35.285 0-64 28.715-64 64s28.715 64 64 64 64-28.715 64-64-28.715-64-64-64zM704.469 448h108.843c9.899-48.64 52.949-85.333 104.491-85.333 58.837 0 106.667 47.872 106.667 106.667s-47.829 106.667-106.667 106.667c-51.541 0-94.592-36.693-104.491-85.333h-108.843c-11.776 0-21.333-9.557-21.333-21.333s9.515-21.333 21.333-21.333zM917.803 533.333c35.285 0 64-28.715 64-64s-28.715-64-64-64-64 28.715-64 64 28.715 64 64 64zM107.136 362.667c51.541 0 94.592 36.693 104.491 85.333h108.843c11.776 0 21.333 9.557 21.333 21.333s-9.557 21.333-21.333 21.333h-108.843c-9.899 48.64-52.949 85.333-104.491 85.333-58.837 0-106.667-47.872-106.667-106.667s47.829-106.667 106.667-106.667zM107.136 533.333c35.285 0 64-28.715 64-64s-28.715-64-64-64-64 28.715-64 64 28.715 64 64 64z" />
<glyph unicode="&#x40;" glyph-name="bitcoin" d="M640 533.333c0 47.104-38.272 85.333-85.333 85.333v63.104c0 11.776-9.557 21.333-21.333 21.333s-21.333-9.515-21.333-21.333v-63.104h-42.667v63.104c0 11.776-9.557 21.333-21.333 21.333s-21.333-9.515-21.333-21.333v-63.104h-21.333c-11.776 0-21.333-9.557-21.333-21.333v-256c0-11.776 9.557-21.333 21.333-21.333h21.333v-64c0-11.776 9.557-21.333 21.333-21.333s21.333 9.557 21.333 21.333v64h42.667v-64c0-11.776 9.557-21.333 21.333-21.333s21.333 9.557 21.333 21.333v64c47.061 0 85.333 38.272 85.333 85.333 0 25.6-11.563 48.341-29.483 64 17.92 15.659 29.483 38.4 29.483 64zM597.333 405.333c0-23.509-19.115-42.667-42.667-42.667h-128v85.333h128c23.552 0 42.667-19.157 42.667-42.667zM426.667 490.667v85.333h128c23.552 0 42.667-19.157 42.667-42.667s-19.115-42.667-42.667-42.667h-128zM490.667 960c-270.549 0-490.667-220.117-490.667-490.667s220.117-490.667 490.667-490.667 490.667 220.117 490.667 490.667c0 270.549-220.117 490.667-490.667 490.667zM490.667 192c-152.917 0-277.333 124.416-277.333 277.333s124.416 277.333 277.333 277.333 277.333-124.416 277.333-277.333-124.416-277.333-277.333-277.333zM43.733 448h128c4.267-63.829 27.221-122.453 63.488-170.667h-148.736c-24.875 52.181-39.851 109.781-42.752 170.667zM171.733 490.667h-128c3.712 77.995 27.307 150.699 66.005 213.333h164.096c-58.325-53.973-96.512-129.152-102.101-213.333zM809.6 448h128c-2.859-60.885-17.877-118.485-42.752-170.667h-148.736c36.267 48.213 59.221 106.837 63.488 170.667zM809.6 490.667c-5.589 84.181-43.733 159.36-102.101 213.333h164.096c38.699-62.635 62.293-135.339 66.005-213.333h-128zM841.813 746.667h-182.315c-31.915 68.523-69.589 125.056-100.011 164.821 113.963-17.707 213.76-78.165 282.325-164.821zM500.48 916.821c25.429-30.037 64.256-80.981 99.84-147.285-34.219 12.587-71.083 19.797-109.653 19.797s-75.435-7.211-109.653-19.755c35.584 66.261 74.411 117.248 99.84 147.285 3.285 0.043 6.485 0.469 9.813 0.469s6.528-0.427 9.813-0.512zM421.845 911.488c-30.421-39.765-68.096-96.299-100.011-164.821h-182.315c68.565 86.656 168.363 147.115 282.325 164.821zM109.739 234.667h164.096c13.653-12.629 28.331-24.107 43.989-34.261 32.768-72.533 72.363-131.883 104.021-173.227-131.84 20.48-244.608 98.347-312.107 207.488zM480.811 21.845c-25.344 29.952-64.171 80.896-99.883 147.285 34.261-12.587 71.168-19.797 109.739-19.797s75.477 7.211 109.739 19.797c-35.712-66.432-74.539-117.333-99.883-147.285-3.328-0.085-6.528-0.512-9.856-0.512s-6.528 0.427-9.856 0.512zM559.488 27.179c31.616 41.344 71.253 100.693 104.021 173.227 15.659 10.112 30.336 21.632 43.989 34.261h164.096c-67.499-109.141-180.267-187.008-312.107-207.488z" />
<glyph unicode="&#x41;" glyph-name="chat-1" d="M362.667 406.101h-42.667c-5.675 0-11.093-2.261-15.104-6.229l-134.229-134.272v119.168c0 11.776-9.557 21.333-21.333 21.333h-106.667v469.333h768v-256c0-11.776 9.557-21.333 21.333-21.333s21.333 9.557 21.333 21.333v277.333c0 11.776-9.557 21.333-21.333 21.333h-810.667c-11.776 0-21.333-9.557-21.333-21.333v-512c0-11.776 9.557-21.333 21.333-21.333h106.667v-149.333c0-8.619 5.205-16.427 13.184-19.712 2.645-1.067 5.419-1.621 8.149-1.621 5.547 0 11.008 2.176 15.104 6.229l164.437 164.437h33.792c11.776 0 21.333 9.557 21.333 21.333s-9.557 21.333-21.333 21.333zM1002.667 534.101h-512c-11.776 0-21.333-9.557-21.333-21.333v-341.333c0-11.776 9.557-21.333 21.333-21.333h226.56l185.941-165.291c3.968-3.541 9.045-5.376 14.165-5.376 2.944 0 5.931 0.64 8.747 1.877 7.637 3.456 12.587 11.008 12.587 19.456v149.333h64c11.776 0 21.333 9.557 21.333 21.333v341.333c0 11.776-9.557 21.333-21.333 21.333zM981.333 192.768h-64c-11.776 0-21.333-9.557-21.333-21.333v-123.179l-156.501 139.136c-3.883 3.456-8.917 5.376-14.165 5.376h-213.333v298.667h469.333v-298.667z" />
<glyph unicode="&#x42;" glyph-name="chat-2" d="M1002.667 960.768h-981.333c-11.776 0-21.333-9.557-21.333-21.333v-341.333c0-11.776 9.557-21.333 21.333-21.333h192v-128c0-8.149 4.651-15.573 11.947-19.157 2.987-1.451 6.187-2.176 9.387-2.176 4.651 0 9.259 1.536 13.099 4.48l186.197 144.853h568.704c11.776 0 21.333 9.557 21.333 21.333v341.333c0 11.776-9.557 21.333-21.333 21.333zM981.333 619.435h-554.667c-4.736 0-9.344-1.579-13.099-4.48l-157.568-122.581v105.728c0 11.776-9.557 21.333-21.333 21.333h-192v298.667h938.667v-298.667zM1002.667 491.435h-554.667c-11.776 0-21.333-9.557-21.333-21.333s9.557-21.333 21.333-21.333h533.333v-256h-192c-11.776 0-21.333-9.557-21.333-21.333v-123.179l-156.501 139.136c-3.883 3.456-8.917 5.376-14.165 5.376h-554.667v256h85.333c11.776 0 21.333 9.557 21.333 21.333s-9.557 21.333-21.333 21.333h-106.667c-11.776 0-21.333-9.557-21.333-21.333v-298.667c0-11.776 9.557-21.333 21.333-21.333h567.893l185.941-165.291c3.968-3.541 9.045-5.376 14.165-5.376 2.944 0 5.931 0.64 8.747 1.877 7.637 3.456 12.587 11.008 12.587 19.456v149.333h192c11.776 0 21.333 9.557 21.333 21.333v298.667c0 11.776-9.557 21.333-21.333 21.333z" />
<glyph unicode="&#x43;" glyph-name="chat-3" d="M1002.667 960h-640c-11.776 0-21.333-9.557-21.333-21.333v-170.667c0-11.776 9.557-21.333 21.333-21.333s21.333 9.557 21.333 21.333v149.333h597.333v-341.333h-128c-5.248 0-10.283-1.92-14.165-5.376l-156.501-139.136v123.179c0 11.776-9.557 21.333-21.333 21.333h-64c-11.776 0-21.333-9.557-21.333-21.333s9.557-21.333 21.333-21.333h42.667v-149.333c0-8.405 4.949-16 12.587-19.456 2.816-1.237 5.803-1.877 8.747-1.877 5.12 0 10.197 1.835 14.165 5.376l185.941 165.291h141.227c11.776 0 21.333 9.557 21.333 21.333v384c0 11.776-9.557 21.333-21.333 21.333zM810.667 746.667h42.667v-42.667h-42.667v42.667zM682.667 746.667h42.667v-42.667h-42.667v42.667zM554.667 746.667h42.667v-42.667h-42.667v42.667zM448 206.379v59.605c14.72 12.416 35.925 40.917 38.912 102.955 17.664 11.648 26.965 37.675 26.965 62.549 0 22.357-7.765 40.107-20.736 50.133 9.131 21.931 22.315 59.392 12.288 99.541-14.805 59.179-88.576 80.171-147.243 80.171-52.267 0-116.48-16.683-140.373-62.123-19.029 1.237-33.621-4.608-42.965-16.299-21.376-26.667-2.944-70.485 10.581-100.821-15.616-10.795-25.429-30.891-25.429-55.424 0-28.032 12.843-50.304 32.469-59.477 3.541-61.696 26.496-89.771 42.197-101.803v-59.051c-80.043-32.597-234.667-100.949-234.667-142.336v-106.667c0-11.776 9.557-21.333 21.333-21.333h640c11.776 0 21.333 9.557 21.333 21.333v106.667c0 41.387-154.624 109.739-234.667 142.379zM640-21.333h-597.333v80.896c16.512 18.261 111.147 68.608 221.269 112.683 8.064 3.157 13.397 11.051 13.397 19.755v85.333c0 8.363-5.845 16.341-13.44 19.84-0.299 0.128-29.227 14.123-29.227 86.827 0 11.776-9.557 21.333-21.333 21.333-7.339 0-10.667 12.459-10.667 21.333s3.328 21.333 10.667 21.333c11.776 0 21.333 9.557 21.333 21.333 0 7.083-2.987 13.739-8.917 27.051-18.56 41.557-19.712 55.595-18.091 59.349 0.043 0.085 4.608 2.432 19.755-0.64 11.136-2.261 22.187 4.651 24.96 15.744 7.851 31.403 59.179 47.829 105.813 47.829s97.963-16.427 105.813-47.829c7.765-31.104-5.376-61.483-13.227-79.659-4.096-9.472-6.571-15.147-6.571-21.845 0-11.776 9.557-21.333 21.333-21.333 1.152 0 2.475 0 4.053-4.949 4.565-14.165-1.664-34.944-3.712-37.717-11.776 0-21.333-9.557-21.333-21.333 0-71.979-25.728-86.741-25.515-86.699-8.235-3.157-13.696-11.093-13.696-19.968v-85.333c0-8.704 5.333-16.597 13.397-19.797 110.080-44.032 204.757-94.421 221.269-112.683v-80.853z" />
<glyph unicode="&#x44;" glyph-name="person" d="M897.621 244.352l-230.485 63.787c40.448 36.395 73.045 85.035 78.677 143.189 29.269 9.984 48.896 41.429 48.896 82.005 0 12.16-2.176 23.083-5.419 33.28l21.333 156.587c0.341 3.413 7.637 84.352-53.077 151.424-51.328 56.661-133.888 85.376-245.547 85.376s-194.176-28.715-245.461-85.376c-60.715-67.072-53.419-148.011-52.992-152.149l21.248-155.861c-3.243-10.197-5.461-21.12-5.461-33.28 0-40.576 19.627-72.021 48.896-82.005 5.675-58.411 38.571-107.307 79.275-143.744l-232.875-63.829c-74.539-27.904-124.629-100.139-124.629-179.755v-106.667c0-11.776 9.557-21.333 21.333-21.333h981.333c11.776 0 21.333 9.557 21.333 21.333v106.667c0 79.616-50.048 151.851-126.379 180.352zM298.155 845.995c42.837 47.36 114.816 71.339 213.845 71.339 98.688 0 170.496-23.851 213.376-70.827 48.085-52.693 42.752-118.272 42.795-118.272l-15.915-116.693c-3.029 1.451-5.675 3.669-8.917 4.608l-18.432 92.032c-1.963 9.984-10.709 17.152-20.907 17.152-127.317 0-148.736 35.883-162.944 59.563-4.224 7.040-8.192 13.696-13.995 19.499-8.021 8.021-22.187 8.021-30.165 0-5.76-5.803-9.771-12.459-13.995-19.499-14.123-23.68-35.584-59.563-162.901-59.563-10.155 0-18.901-7.168-20.907-17.152l-18.389-92.075c-3.285-0.939-5.931-3.157-8.96-4.608l-15.829 115.968c-0.043 0.597-5.931 65.323 42.24 118.528zM320 469.333c0 11.776-9.515 21.333-21.333 21.333-21.077 0-26.667 27.904-26.667 42.667s5.589 42.667 26.667 42.667c10.155 0 18.901 7.168 20.907 17.152l17.963 89.728c112.128 2.987 151.467 34.987 174.464 68.352 22.997-33.323 62.336-65.323 174.464-68.352l17.963-89.728c2.005-9.984 10.752-17.152 20.907-17.152 21.077 0 26.667-27.904 26.667-42.667s-5.547-42.667-26.667-42.667c-11.776 0-21.333-9.557-21.333-21.333 0-110.933-134.741-192-192-192s-192 81.067-192 192zM512 170.667c-23.509 0-42.667 19.115-42.667 42.667v29.184c16.128-5.12 30.848-7.851 42.667-7.851s26.581 2.731 42.667 7.851v-29.184c0-23.552-19.115-42.667-42.667-42.667zM42.667 64c0 61.909 38.955 118.101 95.061 139.221l263.040 72.021c8.661-5.461 17.323-10.453 25.941-14.891v-47.019c0-34.645 20.821-64.384 50.517-77.739l-104.619-156.928h-329.941v85.333zM423.893-21.333l88.107 132.224 88.149-132.224h-176.256zM981.333-21.333h-329.899l-104.619 156.928c29.739 13.355 50.517 43.093 50.517 77.739v47.019c8.917 4.523 17.877 9.771 26.837 15.403l260.267-71.936c57.984-21.717 96.896-77.909 96.896-139.819v-85.333zM405.376 554.197c4.053 0.555 38.613 0.555 42.667 0 0.171-11.563 9.685-20.949 21.333-20.949 11.776 0 21.333 9.557 21.333 21.333 0 12.715-3.797 22.955-11.349 30.421-12.629 12.544-30.208 12.16-47.147 12.288h-11.051c-16.683-0.171-34.475 0.256-47.147-12.288-7.509-7.467-11.349-17.707-11.349-30.421 0-11.776 9.643-20.181 21.419-20.181 10.88 0 19.968 9.131 21.291 19.797zM554.795 534.4c10.837 0 19.925 9.131 21.248 19.797 4.053 0.555 38.613 0.555 42.667 0 0.171-11.563 9.685-20.949 21.333-20.949 11.776 0 21.333 9.557 21.333 21.333 0 12.715-3.797 22.955-11.349 30.421-12.629 12.544-30.293 12.16-47.147 12.288h-11.051c-16.768-0.171-34.475 0.256-47.147-12.288-7.509-7.467-11.349-17.707-11.349-30.421 0-11.776 9.685-20.181 21.461-20.181zM746.667 106.667h149.333v-42.667h-149.333v42.667z" />
<glyph unicode="&#x45;" glyph-name="people" d="M448 377.045v59.008c15.829 12.203 39.125 40.661 42.283 103.68 17.792 11.819 27.947 38.187 27.947 63.915 0 14.251-3.243 26.923-9.387 36.651-2.901 4.693-6.443 8.619-10.496 11.776 9.387 21.888 23.083 59.477 13.013 99.755-14.805 59.179-89.344 80.171-148.693 80.171-52.864 0-117.803-16.64-141.781-62.123-19.797 1.152-33.92-4.608-43.52-16.341-21.803-26.667-4.352-70.528 8.491-100.949-4.395-3.243-8.277-7.381-11.435-12.331-6.4-9.984-9.771-22.869-9.771-37.333 0-25.429 10.069-51.499 27.733-63.189 3.2-63.019 26.453-91.477 42.283-103.68v-58.965c-80.043-32.64-234.667-101.035-234.667-142.421v-192c0-11.776 9.557-21.333 21.333-21.333h640c11.776 0 21.333 9.557 21.333 21.333v192c0 41.387-154.624 109.781-234.667 142.379zM640 64h-597.333v166.229c16.512 18.261 111.147 68.608 221.269 112.64 8.064 3.243 13.397 11.051 13.397 19.797v85.333c0 8.363-5.845 16.341-13.44 19.797-0.299 0.171-29.227 14.165-29.227 86.869 0 11.776-7.040 20.693-18.773 20.693-4.907 3.371-11.563 23.979-7.168 38.144 1.579 5.163 2.901 5.163 4.608 5.163 5.675 0 11.093 2.261 15.104 6.229s6.229 9.429 6.229 15.104c0 6.784-2.731 13.269-8.149 26.069-17.92 42.283-18.645 56.277-16.341 60.203 0 0.085 4.395 2.731 20.224-0.512 11.093-2.219 22.187 4.651 24.96 15.744 6.912 27.691 52.053 47.829 107.307 47.829s100.395-20.139 107.307-47.829c7.723-30.933-5.76-61.227-13.781-79.36-4.267-9.557-6.827-15.36-6.827-22.144 0-11.776 10.795-21.461 22.613-21.461 0.896-0.64 3.499-5.12 3.584-14.336 0.171-14.72-5.717-26.709-6.229-28.203-11.776 0-21.333-9.557-21.333-21.333 0-72.235-28.544-86.528-28.373-86.528-8.576-2.987-14.293-11.093-14.293-20.139v-85.333c0-8.747 5.333-16.555 13.397-19.84 110.080-43.989 204.757-94.379 221.269-112.64v-166.187zM893.227 311.979c-20.096 7.211-41.045 14.763-61.227 22.528v36.608c15.915 10.581 38.699 34.304 42.197 84.651 14.421 12.16 21.888 36.864 21.888 61.355 0 9.6-1.237 23.552-7.253 35.584-1.963 3.968-4.352 7.467-7.040 10.496 10.453 18.987 24.235 50.133 13.099 83.541-15.403 46.208-77.995 62.592-126.891 62.592-42.709 0-95.872-12.501-118.912-46.421-15.744 0.384-28.885-4.48-37.547-14.677-18.944-22.4-7.083-58.411 2.091-82.56-3.669-3.413-6.869-7.637-9.387-12.544-6.187-11.989-7.467-25.899-7.467-35.541 0-24.747 7.595-49.749 22.315-61.909 3.541-50.261 26.325-73.941 42.197-84.523v-29.824c0-11.776 9.557-21.333 21.333-21.333s21.333 9.557 21.333 21.333v42.667c0 9.045-6.4 17.365-14.976 20.352-1.067 0.384-27.648 10.368-27.648 64.981 0 9.984-6.827 18.389-16.085 20.651-6.187 9.472-8.277 38.059-5.248 43.349 11.776 0 21.333 9.557 21.333 21.333 0 5.845-2.048 11.221-5.845 20.992-9.6 24.917-13.312 40.277-12.416 44.117 0 0.043 3.413 1.451 13.995-0.683 10.539-2.176 21.12 3.883 24.491 14.165 6.357 19.029 43.52 33.408 86.443 33.408s80.085-14.379 86.4-33.408c6.869-20.565-6.315-43.307-14.208-56.875-4.907-8.533-8.192-14.165-8.192-21.717 0-11.776 6.272-19.968 18.048-19.968 5.547-6.443 3.883-35.2-2.091-44.715-9.173-2.389-15.957-10.752-15.957-20.651 0-54.613-26.581-64.597-27.093-64.811-9.216-2.56-15.573-10.965-15.573-20.523v-64c0-8.747 5.333-16.555 13.397-19.84 24.576-9.813 50.901-19.285 76.032-28.331 37.973-13.653 89.131-32.085 102.571-42.539v-165.291h-213.333c-11.776 0-21.333-9.557-21.333-21.333s9.557-21.333 21.333-21.333h234.667c11.776 0 21.333 9.557 21.333 21.333v192c0 29.099-37.76 43.819-130.773 77.312z" />
<glyph unicode="&#x46;" glyph-name="employees" d="M170.667 405.333c58.795 0 106.667 47.872 106.667 106.667s-47.872 106.667-106.667 106.667-106.667-47.872-106.667-106.667 47.872-106.667 106.667-106.667zM170.667 576c35.285 0 64-28.715 64-64s-28.715-64-64-64-64 28.715-64 64 28.715 64 64 64zM320 362.667h-298.667c-11.776 0-21.333-9.557-21.333-21.333 0-101.931 6.827-195.755 85.333-226.688v-157.312c0-11.776 9.557-21.333 21.333-21.333h128c11.776 0 21.333 9.557 21.333 21.333v157.312c78.507 30.933 85.333 124.8 85.333 226.688 0 11.776-9.557 21.333-21.333 21.333zM229.333 150.784c-9.429-2.432-16-10.923-16-20.651v-151.467h-85.333v151.467c0 9.728-6.571 18.219-16 20.651-54.485 13.995-67.669 70.443-69.205 169.216h255.701c-1.493-98.773-14.677-155.221-69.163-169.216zM853.333 405.333c58.795 0 106.667 47.872 106.667 106.667s-47.872 106.667-106.667 106.667-106.667-47.872-106.667-106.667 47.872-106.667 106.667-106.667zM853.333 576c35.285 0 64-28.715 64-64s-28.715-64-64-64-64 28.715-64 64 28.715 64 64 64zM1002.667 362.667h-298.667c-11.776 0-21.333-9.557-21.333-21.333 0-101.931 6.827-195.755 85.333-226.688v-157.312c0-11.776 9.557-21.333 21.333-21.333h128c11.776 0 21.333 9.557 21.333 21.333v157.312c78.507 30.933 85.333 124.8 85.333 226.688 0 11.776-9.557 21.333-21.333 21.333zM912 150.784c-9.429-2.432-16-10.923-16-20.651v-151.467h-85.333v151.467c0 9.728-6.571 18.219-16 20.651-54.443 13.995-67.669 70.443-69.163 169.216h255.701c-1.536-98.773-14.72-155.221-69.205-169.216zM512 746.667c58.795 0 106.667 47.872 106.667 106.667s-47.872 106.667-106.667 106.667-106.667-47.872-106.667-106.667 47.872-106.667 106.667-106.667zM512 917.333c35.285 0 64-28.715 64-64s-28.715-64-64-64-64 28.715-64 64 28.715 64 64 64zM661.333 704h-298.667c-11.776 0-21.333-9.557-21.333-21.333 0-101.931 6.827-195.755 85.333-226.688v-157.312c0-11.776 9.557-21.333 21.333-21.333h128c11.776 0 21.333 9.557 21.333 21.333v157.312c78.507 30.933 85.333 124.8 85.333 226.688 0 11.776-9.557 21.333-21.333 21.333zM570.667 492.117c-9.429-2.432-16-10.923-16-20.651v-151.467h-85.333v151.467c0 9.728-6.571 18.219-16 20.651-54.485 13.995-67.669 70.443-69.205 169.216h255.701c-1.493-98.773-14.677-155.221-69.163-169.216z" />
<glyph unicode="&#x47;" glyph-name="timer" d="M347.563 518.229c4.181-4.139 9.643-6.229 15.104-6.229s10.923 2.091 15.104 6.229c8.32 8.32 8.32 21.845 0 30.165l-64 64c-8.32 8.32-21.845 8.32-30.165 0s-8.32-21.845 0-30.165l63.957-64zM512 192c-11.776 0-21.333-9.557-21.333-21.333v-85.333c0-11.776 9.557-21.333 21.333-21.333s21.333 9.557 21.333 21.333v85.333c0 11.776-9.557 21.333-21.333 21.333zM347.563 249.771l-64-64c-8.32-8.32-8.32-21.845 0-30.165 4.181-4.181 9.643-6.272 15.104-6.272s10.923 2.091 15.104 6.229l64 64c8.32 8.32 8.32 21.845 0 30.165s-21.845 8.363-30.208 0.043zM810.667 405.333h-85.333c-11.776 0-21.333-9.557-21.333-21.333s9.557-21.333 21.333-21.333h85.333c11.776 0 21.333 9.557 21.333 21.333s-9.557 21.333-21.333 21.333zM676.437 249.771c-8.32 8.32-21.845 8.32-30.165 0s-8.32-21.845 0-30.165l64-64c4.139-4.181 9.6-6.272 15.061-6.272s10.923 2.091 15.104 6.229c8.32 8.32 8.32 21.845 0 30.165l-64 64.043zM661.333 512c5.461 0 10.923 2.091 15.104 6.229l64 64c8.32 8.32 8.32 21.845 0 30.165s-21.845 8.32-30.165 0l-64-64c-8.32-8.32-8.32-21.845 0-30.165 4.139-4.139 9.6-6.229 15.061-6.229zM832.853 695.979l52.48 52.48 16.896-16.896c4.181-4.139 9.643-6.229 15.104-6.229s10.923 2.091 15.104 6.229c8.32 8.32 8.32 21.845 0 30.165l-64 64c-8.32 8.32-21.845 8.32-30.165 0s-8.32-21.845 0-30.165l16.896-16.896-53.504-53.504c-73.088 62.123-166.272 100.907-268.331 105.771v86.4h21.333c11.776 0 21.333 9.557 21.333 21.333s-9.557 21.333-21.333 21.333h-85.333c-11.776 0-21.333-9.557-21.333-21.333s9.557-21.333 21.333-21.333h21.333v-512h-405.333c-11.776 0-21.333-9.557-21.333-21.333 0-247.040 200.96-448 448-448s448 200.96 448 448c0 121.259-48.64 231.253-127.147 311.979zM512-21.333c-216.32 0-393.643 170.368-404.779 384h404.779c11.776 0 21.333 9.557 21.333 21.333v404.779c213.632-11.136 384-188.459 384-404.779 0-223.488-181.845-405.333-405.333-405.333z" />
<glyph unicode="&#x48;" glyph-name="employee-list" d="M602.027 392.149l-154.027 55.168v61.867c50.091 40.277 83.072 107.989 83.072 184.704 0 111.061-77.312 223.445-189.739 223.445-111.701 0-189.739-109.995-189.739-223.403 0-76.715 32.981-144.427 83.072-184.704v-61.867l-154.027-55.168c-48.213-17.323-80.64-63.659-80.64-115.371v-63.488c0-11.776 9.557-21.333 21.333-21.333h448c11.776 0 21.333 9.557 21.333 21.333s-9.557 21.333-21.333 21.333h-426.667v42.155c0 33.749 21.035 63.957 52.352 75.179l168.149 60.245c8.491 3.029 14.165 11.093 14.165 20.096v52.011c20.096-8.533 41.429-13.995 64-13.995s43.904 5.461 64 13.995v-52.011c0-9.003 5.675-17.024 14.165-20.096 5.845-2.091 169.173-61.483 175.36-61.483 8.747 0 16.939 5.419 20.096 14.123 3.925 11.093-1.835 23.339-12.928 27.264zM341.333 874.667c70.699 0 129.835-61.653 143.872-143.488-45.227-7.765-72.747 7.381-100.053 55.168-3.883 6.784-11.179 10.795-18.944 10.752-7.808-0.171-14.891-4.565-18.517-11.52-14.592-28.032-66.005-53.589-107.861-53.589-14.848 0-27.648 2.944-40.235 7.552 16.555 77.483 73.515 135.125 141.739 135.125zM341.333 512.981c-79.701 0-147.797 79.573-146.944 182.741 14.336-4.181 29.227-6.4 45.44-6.4 45.397 0 95.061 20.779 125.227 49.92 27.051-35.797 58.923-52.779 99.157-52.779 7.509 0 15.659 1.237 23.808 2.475-2.219-97.451-66.987-175.957-146.688-175.957zM682.667 448c0-11.776 9.557-21.333 21.333-21.333s21.333 9.557 21.333 21.333v61.227c50.091 40.277 83.072 107.989 83.072 184.704 0 111.019-77.312 223.403-189.739 223.403-11.776 0-21.333-9.557-21.333-21.333s9.557-21.333 21.333-21.333c70.699 0 129.835-61.653 143.872-143.488-45.312-7.765-72.747 7.381-100.053 55.168-5.845 10.24-18.859 13.739-29.099 7.979-10.24-5.888-13.781-18.901-7.936-29.141 30.592-53.504 67.157-78.72 116.096-78.72 7.509 0 15.659 1.237 23.808 2.475-2.219-97.408-66.944-175.915-146.688-175.915-11.776 0-21.333-9.557-21.333-21.333s9.557-21.333 21.333-21.333c22.571 0 43.904 5.461 64 13.995v-36.352zM1002.667 320h-341.333c-11.776 0-21.333-9.557-21.333-21.333v-341.333c0-11.776 9.557-21.333 21.333-21.333h341.333c11.776 0 21.333 9.557 21.333 21.333v341.333c0 11.776-9.557 21.333-21.333 21.333zM981.333-21.333h-298.667v298.667h298.667v-298.667zM746.667 192h170.667c11.776 0 21.333 9.557 21.333 21.333s-9.557 21.333-21.333 21.333h-170.667c-11.776 0-21.333-9.557-21.333-21.333s9.557-21.333 21.333-21.333zM746.667 106.667h170.667c11.776 0 21.333 9.557 21.333 21.333s-9.557 21.333-21.333 21.333h-170.667c-11.776 0-21.333-9.557-21.333-21.333s9.557-21.333 21.333-21.333zM746.667 21.333h106.667c11.776 0 21.333 9.557 21.333 21.333s-9.557 21.333-21.333 21.333h-106.667c-11.776 0-21.333-9.557-21.333-21.333s9.557-21.333 21.333-21.333z" />
<glyph unicode="&#x49;" glyph-name="employee-search" d="M561.749 406.571l-113.749 40.747v61.867c50.091 40.277 83.072 108.032 83.072 184.747 0 111.232-77.525 223.403-189.739 223.403-111.445 0-189.739-109.739-189.739-223.403 0-76.672 32.981-144.427 83.072-184.747v-61.867l-154.027-55.168c-48.213-17.28-80.64-63.616-80.64-115.328v-63.488c0-11.776 9.557-21.333 21.333-21.333h448c11.776 0 21.333 9.557 21.333 21.333s-9.557 21.333-21.333 21.333h-426.667v42.155c0 33.749 21.035 63.957 52.352 75.179l168.149 60.245c8.491 3.029 14.165 11.093 14.165 20.096v52.011c20.096-8.533 41.429-13.995 64-13.995s43.904 5.461 64 13.995v-52.011c0-9.003 5.675-17.024 14.165-20.096 5.76-2.091 128.939-47.104 135.083-47.104 8.747 0 16.939 5.419 20.096 14.123 3.968 11.093-1.835 23.381-12.928 27.307zM341.333 874.667c70.699 0 129.835-61.653 143.872-143.488-45.099-7.851-72.704 7.339-100.053 55.168-3.883 6.784-11.008 10.88-18.944 10.752-7.808-0.171-14.891-4.565-18.517-11.477-14.592-28.075-66.005-53.632-107.861-53.632-14.848 0-27.648 2.987-40.235 7.552 16.555 77.525 73.515 135.125 141.739 135.125zM341.333 512.981c-79.829 0-147.797 79.701-146.944 182.741 14.336-4.139 29.227-6.4 45.44-6.4 45.397 0 95.061 20.779 125.227 49.92 27.051-35.755 58.923-52.779 99.157-52.779 7.509 0 15.659 1.237 23.808 2.432-2.261-97.408-66.987-175.915-146.688-175.915zM618.667 512.981c-11.776 0-21.333-9.557-21.333-21.333s9.557-21.333 21.333-21.333c22.571 0 43.904 5.461 64 13.995v-36.309c0-11.776 9.557-21.333 21.333-21.333s21.333 9.557 21.333 21.333v61.227c50.091 40.277 83.072 108.032 83.072 184.747 0 111.232-77.525 223.36-189.739 223.36-11.776 0-21.333-9.557-21.333-21.333s9.557-21.333 21.333-21.333c70.699 0 129.835-61.653 143.872-143.488-45.141-7.851-72.747 7.339-100.053 55.125-5.888 10.24-18.901 13.824-29.099 7.936-10.24-5.845-13.781-18.859-7.936-29.099 30.592-53.504 67.157-78.72 116.096-78.72 7.509 0 15.659 1.237 23.808 2.432-2.261-97.365-66.987-175.872-146.688-175.872zM1017.771-27.563l-115.499 115.456c22.443 28.885 36.395 64.725 36.395 104.107 0 94.123-76.544 170.667-170.667 170.667s-170.667-76.544-170.667-170.667 76.544-170.667 170.667-170.667c39.339 0 75.179 13.909 104.064 36.395l115.499-115.456c4.181-4.181 9.643-6.272 15.104-6.272s10.923 2.091 15.104 6.229c8.32 8.363 8.32 21.845 0 30.208zM640 192c0 70.571 57.429 128 128 128s128-57.429 128-128-57.429-128-128-128-128 57.429-128 128z" />
<glyph unicode="&#x4a;" glyph-name="employee-payroll" d="M789.333 405.333c-129.408 0-234.667-105.259-234.667-234.667s105.259-234.667 234.667-234.667 234.667 105.259 234.667 234.667c0 129.408-105.259 234.667-234.667 234.667zM789.333-21.333c-105.856 0-192 86.144-192 192s86.144 192 192 192 192-86.144 192-192-86.144-192-192-192zM789.333 250.752c15.488 0 28.117-12.587 28.117-28.075 0-11.819 9.557-21.333 21.333-21.333s21.333 9.515 21.333 21.333c0 31.531-20.864 57.984-49.451 67.072v15.317c0 11.776-9.557 21.333-21.333 21.333s-21.333-9.557-21.333-21.333v-15.317c-28.587-9.088-49.451-35.541-49.451-67.072 0-39.083 31.744-70.869 70.784-70.869 15.488 0 28.117-12.587 28.117-28.075 0-15.531-12.629-28.16-28.117-28.16s-28.117 12.629-28.117 28.16c0 11.776-9.557 21.333-21.333 21.333s-21.333-9.557-21.333-21.333c0-31.573 20.864-58.069 49.451-67.2v-15.189c0-11.819 9.557-21.333 21.333-21.333s21.333 9.515 21.333 21.333v15.189c28.587 9.131 49.451 35.627 49.451 67.2 0 38.997-31.744 70.741-70.784 70.741-15.488 0-28.117 12.672-28.117 28.203 0 15.488 12.629 28.075 28.117 28.075zM554.667 450.517c64.128 49.579 106.667 135.040 106.667 232.149 0 152.917-105.259 277.333-234.667 277.333s-234.667-124.416-234.667-277.333c0-97.109 42.539-182.571 106.667-232.149v-94.165l-199.595-71.296c-59.264-21.163-99.072-77.653-99.072-140.587v-101.803c0-11.776 9.557-21.333 21.333-21.333h469.333c11.776 0 21.333 9.557 21.333 21.333s-9.557 21.333-21.333 21.333h-448v80.469c0 44.928 28.459 85.291 70.784 100.437l213.717 76.331c8.491 3.029 14.165 11.093 14.165 20.096v83.243c26.496-12.245 55.211-19.243 85.333-19.243s58.837 6.997 85.333 19.243v-83.243c0-11.776 9.557-21.333 21.333-21.333s21.333 9.557 21.333 21.333v109.184zM426.667 917.333c94.037 0 172.331-83.072 188.715-192.299-0.299-0.043-0.469-0.043-0.768-0.085-61.952-11.989-100.352 8.235-136.747 71.979-3.84 6.784-9.387 10.283-18.944 10.752-7.808-0.128-14.891-4.523-18.517-11.477-19.669-37.76-85.931-70.869-141.739-70.869-21.717 0-40.363 3.584-58.709 11.093 19.968 103.552 96 180.907 186.709 180.907zM234.667 682.667c0 3.456 0.299 6.827 0.427 10.24 20.011-6.741 40.704-10.24 63.573-10.24 58.624 0 122.923 27.861 159.36 66.133 34.005-47.317 74.112-69.76 125.056-69.76 11.264 0 23.253 1.451 35.584 3.627 0-129.408-86.144-234.667-192-234.667s-192 105.259-192 234.667z" />
<glyph unicode="&#x4b;" glyph-name="employee-check" d="M880.896 249.771l-112.896-112.939-70.229 70.229c-8.32 8.32-21.845 8.32-30.165 0s-8.32-21.845 0-30.165l85.333-85.333c4.139-4.139 9.6-6.229 15.061-6.229s10.923 2.091 15.104 6.229l128 128c8.32 8.32 8.32 21.845 0 30.165s-21.845 8.363-30.208 0.043zM789.333 405.333c-129.408 0-234.667-105.259-234.667-234.667s105.259-234.667 234.667-234.667 234.667 105.259 234.667 234.667c0 129.408-105.259 234.667-234.667 234.667zM789.333-21.333c-105.856 0-192 86.144-192 192s86.144 192 192 192 192-86.144 192-192-86.144-192-192-192zM554.667 450.517c64.128 49.579 106.667 135.040 106.667 232.149 0 152.917-105.259 277.333-234.667 277.333s-234.667-124.416-234.667-277.333c0-97.109 42.539-182.571 106.667-232.149v-94.165l-199.595-71.296c-59.264-21.163-99.072-77.653-99.072-140.587v-101.803c0-11.776 9.557-21.333 21.333-21.333h469.333c11.776 0 21.333 9.557 21.333 21.333s-9.557 21.333-21.333 21.333h-448v80.469c0 44.928 28.459 85.291 70.784 100.437l213.717 76.331c8.491 3.029 14.165 11.093 14.165 20.096v83.243c26.496-12.245 55.211-19.243 85.333-19.243s58.837 6.997 85.333 19.243v-83.243c0-11.776 9.557-21.333 21.333-21.333s21.333 9.557 21.333 21.333v109.184zM426.667 917.333c94.037 0 172.331-83.072 188.715-192.299-0.299-0.043-0.469-0.043-0.768-0.085-61.909-11.947-100.352 8.192-136.789 71.979-3.84 6.784-10.155 9.856-18.944 10.752-7.808-0.128-14.891-4.523-18.517-11.477-19.627-37.76-85.888-70.869-141.696-70.869-21.717 0-40.363 3.584-58.709 11.093 19.968 103.552 96 180.907 186.709 180.907zM234.667 682.667c0 3.456 0.299 6.827 0.427 10.24 20.011-6.741 40.704-10.24 63.573-10.24 58.624 0 122.923 27.861 159.36 66.133 34.005-47.317 74.112-69.76 125.056-69.76 11.264 0 23.253 1.451 35.584 3.627 0-129.408-86.144-234.667-192-234.667s-192 105.259-192 234.667z" />
<glyph unicode="&#x4c;" glyph-name="employee-details" d="M1017.771-27.563l-311.595 311.552c64.683 71.851 104.491 166.613 104.491 270.677 0 223.488-181.845 405.333-405.333 405.333s-405.333-181.845-405.333-405.333 181.845-405.333 405.333-405.333c104.064 0 198.784 39.765 270.677 104.448l311.595-311.552c4.139-4.139 9.6-6.229 15.061-6.229s10.923 2.091 15.104 6.229c8.32 8.363 8.32 21.845 0 30.208zM42.667 554.667c0 200.021 162.688 362.667 362.667 362.667s362.667-162.645 362.667-362.667c0-199.979-162.688-362.667-362.667-362.667s-362.667 162.688-362.667 362.667zM648.235 382.336l-157.568 66.091v50.773c43.435 32.981 72.363 90.069 72.363 155.179 0 91.776-63.957 185.003-157.696 185.003-86.997 0-157.739-82.987-157.739-185.003 0-65.109 28.971-122.197 72.405-155.221v-50.731l-157.568-66.091c-10.88-4.523-16-17.067-11.435-27.904 3.413-8.192 11.349-13.099 19.669-13.099 2.731 0 5.547 0.512 8.235 1.664l170.667 71.595c7.936 3.285 13.099 11.051 13.099 19.669v42.837c13.653-4.523 27.776-7.765 42.667-7.765s29.013 3.2 42.667 7.765v-42.837c0-8.619 5.163-16.341 13.099-19.669l170.667-71.595c2.688-1.152 5.504-1.664 8.235-1.664 8.32 0 16.256 4.907 19.669 13.099 4.565 10.837-0.555 23.339-11.435 27.904zM405.333 796.715c51.968 0 95.445-43.093 109.696-101.675-30.080-3.925-49.451 7.125-68.437 40.448-3.883 6.784-10.581 10.923-18.901 10.752-7.851-0.213-14.933-4.565-18.56-11.477-10.667-20.395-48.469-38.955-79.36-38.955-10.667 0-22.357 1.963-32.725 4.949 15.659 55.68 58.027 95.957 108.288 95.957zM290.603 658.347c12.715-3.243 26.283-5.205 39.211-5.205 34.389 0 71.936 15.019 96.469 36.48 21.291-26.069 46.677-38.699 77.739-38.699 5.205 0 10.752 0.939 16.256 1.664-0.811-77.653-51.968-140.587-114.944-140.587-60.587 0-116.736 60.8-114.731 146.347z" />
<glyph unicode="&#x4d;" glyph-name="protection" d="M922.88 767.232c-3.157 0.853-315.648 86.059-416.811 187.349-8.021 8.064-22.912 8.064-30.933 0-100.949-101.248-413.568-186.496-416.683-187.349-9.344-2.475-15.787-10.923-15.787-20.565 0-365.611 32.427-657.28 440.576-808.448 2.389-0.896 4.907-1.323 7.424-1.323s5.035 0.427 7.424 1.323c408.149 151.168 440.576 442.837 440.576 808.448 0 9.643-6.443 18.091-15.787 20.565zM490.667-18.987c-370.432 140.416-404.395 399.531-405.333 749.483 63.915 18.261 299.691 89.984 405.333 180.395 105.643-90.368 341.419-162.133 405.333-180.395-0.939-349.952-34.901-609.067-405.333-749.483zM341.333 611.84c0-50.517 25.344-95.061 63.829-122.069-95.317-35.029-163.669-126.421-163.669-233.771 0-11.776 9.557-21.333 21.333-21.333h455.68c11.776 0 21.333 9.557 21.333 21.333 0 107.349-68.352 198.741-163.669 233.771 38.485 27.008 63.829 71.552 63.829 122.069 0 82.347-66.987 149.333-149.333 149.333s-149.333-66.987-149.333-149.333zM696.064 277.333h-410.795c10.709 103.893 98.731 185.173 205.397 185.173s194.688-81.28 205.397-185.173zM490.667 718.507c58.795 0 106.667-47.872 106.667-106.667s-47.872-106.667-106.667-106.667-106.667 47.829-106.667 106.667 47.872 106.667 106.667 106.667z" />
<glyph unicode="&#x4e;" glyph-name="business-hierarchy" d="M277.333 618.667c94.123 0 170.667 76.544 170.667 170.667s-76.544 170.667-170.667 170.667-170.667-76.544-170.667-170.667 76.544-170.667 170.667-170.667zM277.333 917.333c70.571 0 128-57.429 128-128s-57.429-128-128-128-128 57.429-128 128 57.429 128 128 128zM512 576h-469.333c-11.776 0-21.333-9.557-21.333-21.333 0-151.637 54.229-271.787 149.333-332.075v-265.259c0-11.776 9.557-21.333 21.333-21.333h170.667c11.776 0 21.333 9.557 21.333 21.333v265.259c95.104 60.331 149.333 180.48 149.333 332.075 0 11.776-9.557 21.333-21.333 21.333zM279.040 533.333l18.859-226.603-20.565-20.565-20.565 20.565 18.859 226.603h3.413zM352.128 253.227c-6.656-3.797-10.795-10.88-10.795-18.56v-256h-128v256c0 7.68-4.139 14.763-10.795 18.56-83.541 47.488-133.291 148.907-138.155 280.107h168.448l-19.413-232.875c-0.512-6.229 1.749-12.459 6.187-16.853l42.667-42.667c4.139-4.181 9.6-6.272 15.061-6.272s10.923 2.091 15.104 6.229l42.667 42.667c4.437 4.437 6.699 10.624 6.187 16.853l-19.456 232.917h168.448c-4.864-131.157-54.613-232.576-138.155-280.107zM832 704h170.667c11.776 0 21.333 9.557 21.333 21.333v170.667c0 11.776-9.557 21.333-21.333 21.333h-170.667c-11.776 0-21.333-9.557-21.333-21.333v-64h-106.667c-11.776 0-21.333-9.557-21.333-21.333v-362.667h-85.333v-42.667h85.333v-320c0-11.776 9.557-21.333 21.333-21.333h106.667v-64c0-11.776 9.557-21.333 21.333-21.333h170.667c11.776 0 21.333 9.557 21.333 21.333v170.667c0 11.776-9.557 21.333-21.333 21.333h-170.667c-11.776 0-21.333-9.557-21.333-21.333v-64h-85.333v298.667h85.333v-64c0-11.776 9.557-21.333 21.333-21.333h170.667c11.776 0 21.333 9.557 21.333 21.333v170.667c0 11.776-9.557 21.333-21.333 21.333h-170.667c-11.776 0-21.333-9.557-21.333-21.333v-64h-85.333v341.333h85.333v-64c0-11.776 9.557-21.333 21.333-21.333zM853.333 874.667h128v-128h-128v128zM853.333 149.333h128v-128h-128v128zM853.333 490.667h128v-128h-128v128z" />
<glyph unicode="&#x4f;" glyph-name="business-increase" d="M277.333 618.667c94.123 0 170.667 76.544 170.667 170.667s-76.544 170.667-170.667 170.667-170.667-76.544-170.667-170.667 76.544-170.667 170.667-170.667zM277.333 917.333c70.571 0 128-57.429 128-128s-57.429-128-128-128-128 57.429-128 128 57.429 128 128 128zM362.667 168.875c-11.776 0-21.333-9.557-21.333-21.333v-168.875h-128v39.125c0 11.776-9.557 21.333-21.333 21.333s-21.333-9.557-21.333-21.333v-60.459c0-11.776 9.557-21.333 21.333-21.333h170.667c11.776 0 21.333 9.557 21.333 21.333v190.208c0 11.776-9.557 21.333-21.333 21.333zM181.845 215.936c3.2-1.749 6.699-2.603 10.155-2.603 7.595 0 14.933 4.053 18.773 11.179 5.632 10.368 1.792 23.296-8.576 28.928-84.736 45.867-133.248 144.768-137.856 279.893h425.941c-1.493-43.947-7.595-84.309-18.261-120.192-3.371-11.307 3.072-23.168 14.379-26.539 11.392-3.413 23.168 3.115 26.539 14.379 13.525 45.568 20.395 97.28 20.395 153.685 0 11.776-9.557 21.333-21.333 21.333h-469.333c-11.776 0-21.333-9.557-21.333-21.333 0-219.136 100.565-306.304 160.512-338.731zM789.333 874.667c0 47.104-38.272 85.333-85.333 85.333s-85.333-38.229-85.333-85.333c0-47.061 38.272-85.333 85.333-85.333s85.333 38.272 85.333 85.333zM704 832c-23.509 0-42.667 19.157-42.667 42.667s19.157 42.667 42.667 42.667 42.667-19.157 42.667-42.667c0-23.509-19.157-42.667-42.667-42.667zM655.061 603.776l20.352 37.504c-32.256 17.493-51.712 54.528-55.893 105.387h168.96c-4.181-50.859-23.637-87.893-55.893-105.387l20.395-37.504c29.483 16 79.019 58.667 79.019 164.224 0 11.776-9.557 21.333-21.333 21.333h-213.333c-11.776 0-21.333-9.557-21.333-21.333 0-105.6 49.536-148.224 79.061-164.224zM960 533.333h-277.333c-11.776 0-21.333-9.557-21.333-21.333s9.557-21.333 21.333-21.333h228.096l-272.853-291.029-197.931 158.336c-8.491 6.741-20.693 6.144-28.416-1.579l-384-384c-8.32-8.32-8.32-21.845 0-30.165 4.181-4.139 9.643-6.229 15.104-6.229s10.923 2.091 15.104 6.229l370.517 370.517 198.4-158.763c8.704-6.955 21.291-6.101 28.885 2.091l283.093 301.995v-223.403c0-11.776 9.557-21.333 21.333-21.333s21.333 9.557 21.333 21.333v277.333c0 11.307-9.813 21.333-21.333 21.333z" />
<glyph unicode="&#x50;" glyph-name="business-management" d="M277.333 618.667c94.123 0 170.667 76.544 170.667 170.667s-76.544 170.667-170.667 170.667-170.667-76.544-170.667-170.667 76.544-170.667 170.667-170.667zM277.333 917.333c70.571 0 128-57.429 128-128s-57.429-128-128-128-128 57.429-128 128 57.429 128 128 128zM512 576h-469.333c-11.776 0-21.333-9.557-21.333-21.333 0-151.637 54.229-271.787 149.333-332.075v-265.259c0-11.776 9.557-21.333 21.333-21.333h170.667c11.776 0 21.333 9.557 21.333 21.333v265.259c95.104 60.331 149.333 180.48 149.333 332.075 0 11.776-9.557 21.333-21.333 21.333zM279.040 533.333l18.859-226.603-20.565-20.565-20.565 20.565 18.859 226.603h3.413zM352.128 253.227c-6.656-3.797-10.795-10.88-10.795-18.56v-256h-128v256c0 7.68-4.139 14.763-10.795 18.56-83.541 47.488-133.291 148.907-138.155 280.107h168.448l-19.413-232.875c-0.512-6.229 1.749-12.459 6.187-16.853l42.667-42.667c4.139-4.181 9.6-6.272 15.061-6.272s10.923 2.091 15.104 6.229l42.667 42.667c4.437 4.437 6.699 10.624 6.187 16.853l-19.456 232.917h168.448c-4.864-131.157-54.613-232.576-138.155-280.107zM1002.667 277.333h-106.667v21.333c0 35.285-28.715 64-64 64h-42.667c-35.285 0-64-28.715-64-64v-21.333h-106.667c-11.776 0-21.333-9.557-21.333-21.333v-298.667c0-11.776 9.557-21.333 21.333-21.333h384c11.776 0 21.333 9.557 21.333 21.333v298.667c0 11.776-9.557 21.333-21.333 21.333zM768 298.667c0 11.776 9.557 21.333 21.333 21.333h42.667c11.776 0 21.333-9.557 21.333-21.333v-21.333h-85.333v21.333zM981.333 234.667v-85.333h-341.333v85.333h341.333zM640-21.333v128h149.333v-21.333c0-11.776 9.557-21.333 21.333-21.333s21.333 9.557 21.333 21.333v21.333h149.333v-128h-341.333z" />
<glyph unicode="&#x51;" glyph-name="business-chat" d="M277.333 618.667c94.123 0 170.667 76.544 170.667 170.667s-76.544 170.667-170.667 170.667-170.667-76.544-170.667-170.667 76.544-170.667 170.667-170.667zM277.333 917.333c70.571 0 128-57.429 128-128s-57.429-128-128-128-128 57.429-128 128 57.429 128 128 128zM512 576h-469.333c-11.776 0-21.333-9.557-21.333-21.333 0-151.637 54.229-271.787 149.333-332.075v-265.259c0-11.776 9.557-21.333 21.333-21.333h170.667c11.776 0 21.333 9.557 21.333 21.333v265.259c95.104 60.331 149.333 180.48 149.333 332.075 0 11.776-9.557 21.333-21.333 21.333zM279.040 533.333l18.859-226.603-20.565-20.565-20.565 20.565 18.859 226.603h3.413zM352.128 253.227c-6.656-3.797-10.795-10.88-10.795-18.56v-256h-128v256c0 7.68-4.139 14.763-10.795 18.56-83.541 47.488-133.291 148.907-138.155 280.107h168.448l-19.413-232.875c-0.512-6.229 1.749-12.459 6.187-16.853l42.667-42.667c4.139-4.181 9.6-6.272 15.061-6.272s10.923 2.091 15.104 6.229l42.667 42.667c4.437 4.437 6.699 10.624 6.187 16.853l-19.456 232.917h168.448c-4.864-131.157-54.613-232.576-138.155-280.107zM1002.667 960h-426.667c-11.776 0-21.333-9.557-21.333-21.333v-170.667c0-11.776 9.557-21.333 21.333-21.333s21.333 9.557 21.333 21.333v149.333h384v-213.333h-170.667c-5.675 0-11.093-2.261-15.104-6.229l-70.229-70.272v55.168c0 11.776-9.557 21.333-21.333 21.333h-64c-11.776 0-21.333-9.557-21.333-21.333s9.557-21.333 21.333-21.333h42.667v-85.333c0-8.619 5.205-16.427 13.184-19.712 2.645-1.109 5.419-1.621 8.149-1.621 5.547 0 11.008 2.176 15.104 6.229l100.395 100.437h183.168c11.776 0 21.333 9.557 21.333 21.333v256c0 11.776-9.557 21.333-21.333 21.333zM853.333 832h42.667v-42.667h-42.667v42.667zM768 832h42.667v-42.667h-42.667v42.667zM682.667 832h42.667v-42.667h-42.667v42.667z" />
<glyph unicode="&#x52;" glyph-name="business-statistics" d="M278.656 618.667c94.123 0 170.667 76.544 170.667 170.667s-76.544 170.667-170.667 170.667-170.667-76.544-170.667-170.667 76.587-170.667 170.667-170.667zM278.656 917.333c70.571 0 128-57.429 128-128s-57.429-128-128-128-128 57.429-128 128 57.429 128 128 128zM513.323 576h-469.333c-11.776 0-21.333-9.557-21.333-21.333 0-151.637 54.229-271.787 149.333-332.075v-265.259c0-11.776 9.557-21.333 21.333-21.333h170.667c11.776 0 21.333 9.557 21.333 21.333v265.259c95.104 60.331 149.333 180.48 149.333 332.075 0 11.776-9.515 21.333-21.333 21.333zM280.363 533.333l18.859-226.603-20.565-20.565-20.565 20.565 18.859 226.603h3.413zM353.451 253.227c-6.656-3.797-10.795-10.88-10.795-18.56v-256h-128v256c0 7.68-4.139 14.763-10.795 18.56-83.541 47.531-133.291 148.907-138.112 280.107h168.405l-19.413-232.875c-0.512-6.229 1.749-12.459 6.187-16.853l42.667-42.667c4.139-4.181 9.6-6.272 15.061-6.272s10.923 2.091 15.104 6.229l42.667 42.667c4.437 4.437 6.699 10.624 6.187 16.853l-19.456 232.917h168.448c-4.821-131.157-54.571-232.576-138.155-280.107zM1002.667 917.333h-448c-11.776 0-21.333-9.557-21.333-21.333s9.557-21.333 21.333-21.333h426.667v-554.667h-384c-11.776 0-21.333-9.557-21.333-21.333s9.557-21.333 21.333-21.333h405.333c11.776 0 21.333 9.557 21.333 21.333v597.333c0 11.776-9.557 21.333-21.333 21.333zM704 576c-11.776 0-21.333-9.557-21.333-21.333v-149.333h-63.104c-11.776 0-21.333-9.557-21.333-21.333s9.557-21.333 21.333-21.333h254.251c0.171 0 0.299 0.085 0.427 0.085s0.256-0.085 0.427-0.085c11.776 0 21.333 9.557 21.333 21.333v384c0 11.776-9.557 21.333-21.333 21.333s-21.333-9.557-21.333-21.333v-362.667h-42.667v234.667c0 11.776-9.557 21.333-21.333 21.333s-21.333-9.557-21.333-21.333v-234.667h-42.667v149.333c0 11.776-9.557 21.333-21.333 21.333z" />
<glyph unicode="&#x53;" glyph-name="business-strategy" d="M277.333 618.667c94.123 0 170.667 76.544 170.667 170.667s-76.544 170.667-170.667 170.667-170.667-76.544-170.667-170.667 76.544-170.667 170.667-170.667zM277.333 917.333c70.571 0 128-57.429 128-128s-57.429-128-128-128-128 57.429-128 128 57.429 128 128 128zM512 576h-469.333c-11.776 0-21.333-9.557-21.333-21.333 0-151.637 54.229-271.787 149.333-332.075v-265.259c0-11.776 9.557-21.333 21.333-21.333h170.667c11.776 0 21.333 9.557 21.333 21.333v265.259c95.104 60.331 149.333 180.48 149.333 332.075 0 11.776-9.557 21.333-21.333 21.333zM279.040 533.333l18.859-226.603-20.565-20.565-20.565 20.565 18.859 226.603h3.413zM352.128 253.227c-6.656-3.797-10.795-10.88-10.795-18.56v-256h-128v256c0 7.68-4.139 14.763-10.795 18.56-83.541 47.488-133.291 148.907-138.155 280.107h168.448l-19.413-232.875c-0.512-6.229 1.749-12.459 6.187-16.853l42.667-42.667c4.139-4.181 9.6-6.272 15.061-6.272s10.923 2.091 15.104 6.229l42.667 42.667c4.437 4.437 6.699 10.624 6.187 16.853l-19.456 232.917h168.448c-4.864-131.157-54.613-232.576-138.155-280.107zM700.459 680.917c4.181-4.181 9.643-6.229 15.104-6.229s10.923 2.091 15.104 6.229c8.32 8.32 8.32 21.845 0 30.165l-66.261 66.261 66.261 66.261c8.32 8.32 8.32 21.845 0 30.165s-21.845 8.32-30.165 0l-66.261-66.261-66.261 66.261c-8.32 8.32-21.845 8.32-30.165 0s-8.32-21.845 0-30.165l66.261-66.261-66.261-66.261c-8.32-8.32-8.32-21.845 0-30.165 4.181-4.181 9.643-6.229 15.104-6.229s10.923 2.091 15.104 6.229l66.261 66.261 66.176-66.261zM917.333 576c-58.795 0-106.667-47.872-106.667-106.667s47.872-106.667 106.667-106.667 106.667 47.872 106.667 106.667-47.872 106.667-106.667 106.667zM917.333 405.333c-35.285 0-64 28.715-64 64s28.715 64 64 64 64-28.715 64-64-28.715-64-64-64zM889.301 636.245c-4.949-10.709-0.213-23.381 10.453-28.288 2.901-1.323 5.931-1.963 8.875-1.963 8.064 0 15.829 4.608 19.413 12.416 2.731 5.973 49.408 107.008 51.584 113.195 4.523 12.288-2.603 23.765-13.312 27.221-7.381 2.347-122.411 25.813-129.963 27.392-11.563 2.389-22.827-5.035-25.216-16.555s5.035-22.827 16.597-25.216l60.459-12.501c-114.432-55.381-209.664-148.139-266.624-262.784-5.248-10.581-0.939-23.339 9.643-28.587 3.029-1.493 6.272-2.219 9.472-2.219 7.851 0 15.403 4.352 19.115 11.819 54.699 110.165 147.328 198.869 258.603 249.344l-29.099-63.275z" />
<glyph unicode="&#x54;" glyph-name="business-time" d="M277.333 533.333c94.123 0 170.667 76.544 170.667 170.667s-76.544 170.667-170.667 170.667-170.667-76.544-170.667-170.667 76.544-170.667 170.667-170.667zM277.333 832c70.571 0 128-57.429 128-128s-57.429-128-128-128-128 57.429-128 128 57.429 128 128 128zM512 490.667h-469.333c-11.776 0-21.333-9.557-21.333-21.333 0-151.637 54.229-271.787 149.333-332.075v-179.925c0-11.776 9.557-21.333 21.333-21.333h170.667c11.776 0 21.333 9.557 21.333 21.333v179.925c95.104 60.331 149.333 180.48 149.333 332.075 0 11.776-9.557 21.333-21.333 21.333zM279.040 448l18.859-226.603-20.565-20.565-20.565 20.565 18.859 226.603h3.413zM352.128 167.893c-6.656-3.797-10.795-10.88-10.795-18.56v-170.667h-128v170.667c0 7.68-4.139 14.763-10.795 18.56-83.541 47.488-133.291 148.907-138.155 280.107h168.448l-19.413-232.875c-0.512-6.229 1.749-12.459 6.187-16.853l42.667-42.667c4.139-4.181 9.6-6.272 15.061-6.272s10.923 2.091 15.104 6.229l42.667 42.667c4.437 4.437 6.699 10.624 6.187 16.853l-19.456 232.917h168.448c-4.864-131.157-54.613-232.576-138.155-280.107zM619.435 767.872c-11.776 0-21.333-9.557-21.333-21.333v-234.667c0-11.776 9.557-21.333 21.333-21.333h213.333c11.776 0 21.333 9.557 21.333 21.333s-9.557 21.333-21.333 21.333h-192v213.333c0 11.776-9.557 21.333-21.333 21.333zM597.333 960c-45.227 0-89.685-7.040-132.224-20.949-11.221-3.627-17.323-15.659-13.653-26.88 3.669-11.179 15.659-17.365 26.88-13.653 38.272 12.501 78.293 18.816 118.997 18.816 211.243 0 383.104-171.861 383.104-383.104s-171.861-383.104-383.104-383.104c-11.776 0-21.333-9.557-21.333-21.333s9.557-21.333 21.333-21.333c234.795 0 425.771 191.019 425.771 425.771s-190.976 425.771-425.771 425.771z" />
</font>
</defs>
</svg>
